<svg width="1150" height="370" viewBox="0 0 1150 370" fill="none" xmlns="http://www.w3.org/2000/svg">
<g filter="url(#filter0_d)">
<g clip-path="url(#clip0)">
<rect x="20" y="10" width="1110" height="330" rx="24" fill="url(#paint0_linear)"/>
<g opacity="0.6">
<path opacity="0.6" d="M755.124 52.5608C758.437 44.5182 754.603 35.3124 746.561 31.9992C738.518 28.6859 729.312 32.5198 725.999 40.5624C722.686 48.605 726.52 57.8108 734.562 61.1241C742.605 64.4373 751.811 60.6034 755.124 52.5608Z" stroke="white" stroke-miterlimit="10"/>
<path opacity="0.6" d="M732.644 45.6442C734.704 45.6442 736.374 43.9742 736.374 41.9142C736.374 39.8542 734.704 38.1842 732.644 38.1842C730.584 38.1842 728.914 39.8542 728.914 41.9142C728.914 43.9742 730.584 45.6442 732.644 45.6442Z" stroke="white" stroke-miterlimit="10"/>
<path opacity="0.6" d="M740.036 36.1942C740.036 36.9842 739.396 37.6342 738.596 37.6342C737.806 37.6342 737.156 36.9942 737.156 36.1942C737.156 35.4042 737.796 34.7542 738.596 34.7542C739.386 34.7642 740.036 35.4042 740.036 36.1942Z" stroke="white" stroke-miterlimit="10"/>
<path opacity="0.6" d="M751.454 37.6341C751.454 38.4241 750.814 39.0741 750.014 39.0741C749.224 39.0741 748.574 38.4341 748.574 37.6341C748.574 36.8441 749.214 36.1941 750.014 36.1941C750.804 36.1941 751.454 36.8441 751.454 37.6341Z" stroke="white" stroke-miterlimit="10"/>
<path opacity="0.6" d="M734.825 55.8841C734.825 56.6741 734.185 57.3241 733.385 57.3241C732.595 57.3241 731.945 56.6841 731.945 55.8841C731.945 55.0941 732.585 54.4441 733.385 54.4441C734.185 54.4441 734.825 55.0841 734.825 55.8841Z" stroke="white" stroke-miterlimit="10"/>
<path opacity="0.6" d="M747.154 40.4941C747.154 42.0741 745.874 43.3541 744.294 43.3541C742.714 43.3541 741.434 42.0741 741.434 40.4941C741.434 38.9141 742.714 37.6342 744.294 37.6342C745.874 37.6342 747.154 38.9141 747.154 40.4941Z" stroke="white" stroke-miterlimit="10"/>
<path opacity="0.6" d="M754.994 52.8842C754.024 52.1142 752.814 51.6542 751.484 51.6542C748.354 51.6542 745.824 54.1842 745.824 57.3142C745.824 58.6642 746.304 59.9042 747.094 60.8842C750.604 59.2842 753.434 56.4242 754.994 52.8842Z" stroke="white" stroke-miterlimit="10"/>
</g>
<g opacity="0.6">
<path opacity="0.6" d="M1026.2 97C1026.2 97.29 1025.97 97.52 1025.68 97.52C1025.39 97.52 1025.16 97.29 1025.16 97C1025.16 96.71 1025.39 96.48 1025.68 96.48C1025.97 96.47 1026.2 96.71 1026.2 97Z" fill="url(#paint1_linear)"/>
<path opacity="0.6" d="M1058.29 31.08C1058.29 31.49 1057.95 31.83 1057.54 31.83C1057.13 31.83 1056.79 31.49 1056.79 31.08C1056.79 30.67 1057.13 30.33 1057.54 30.33C1057.95 30.33 1058.29 30.67 1058.29 31.08Z" fill="url(#paint2_linear)"/>
<path opacity="0.6" d="M775.929 216.64C775.929 217.46 775.269 218.12 774.449 218.12C773.629 218.12 772.969 217.46 772.969 216.64C772.969 215.82 773.629 215.16 774.449 215.16C775.269 215.16 775.929 215.82 775.929 216.64Z" fill="white"/>
<path opacity="0.6" d="M812.42 136.43C812.42 137.79 811.31 138.9 809.95 138.9C808.59 138.9 807.48 137.79 807.48 136.43C807.48 135.07 808.59 133.96 809.95 133.96C811.31 133.96 812.42 135.07 812.42 136.43Z" fill="white"/>
<path opacity="0.6" d="M936.358 142.76C936.358 143.58 935.698 144.24 934.878 144.24C934.058 144.24 933.398 143.58 933.398 142.76C933.398 141.94 934.058 141.28 934.878 141.28C935.698 141.27 936.358 141.94 936.358 142.76Z" fill="white"/>
<path opacity="0.6" d="M824.589 110.44C824.589 111.26 823.929 111.92 823.109 111.92C822.289 111.92 821.629 111.26 821.629 110.44C821.629 109.62 822.289 108.96 823.109 108.96C823.929 108.96 824.589 109.63 824.589 110.44Z" fill="white"/>
<path opacity="0.6" d="M1099.34 207.77C1099.34 208.59 1098.68 209.25 1097.86 209.25C1097.04 209.25 1096.38 208.59 1096.38 207.77C1096.38 206.95 1097.04 206.29 1097.86 206.29C1098.68 206.29 1099.34 206.96 1099.34 207.77Z" fill="white"/>
<path opacity="0.6" d="M1070.81 189.45C1070.81 190.81 1069.7 191.92 1068.34 191.92C1066.98 191.92 1065.87 190.81 1065.87 189.45C1065.87 188.09 1066.98 186.98 1068.34 186.98C1069.7 186.98 1070.81 188.08 1070.81 189.45Z" fill="white"/>
<path opacity="0.6" d="M750.288 238.19C750.288 239.01 749.628 239.67 748.808 239.67C747.988 239.67 747.328 239.01 747.328 238.19C747.328 237.37 747.988 236.71 748.808 236.71C749.628 236.7 750.288 237.37 750.288 238.19Z" fill="white"/>
<path opacity="0.6" d="M1039.8 69.1C1039.8 69.44 1039.52 69.72 1039.18 69.72C1038.84 69.72 1038.56 69.44 1038.56 69.1C1038.56 68.76 1038.84 68.48 1039.18 68.48C1039.52 68.48 1039.8 68.76 1039.8 69.1Z" fill="white"/>
<path opacity="0.6" d="M1088.63 20.47C1088.63 21.83 1087.52 22.94 1086.16 22.94C1084.8 22.94 1083.69 21.83 1083.69 20.47C1083.69 19.11 1084.8 18 1086.16 18C1087.53 18 1088.63 19.11 1088.63 20.47Z" fill="white"/>
<path opacity="0.6" d="M1098.75 46.48C1098.75 46.97 1098.35 47.37 1097.86 47.37C1097.37 47.37 1096.97 46.97 1096.97 46.48C1096.97 45.99 1097.37 45.59 1097.86 45.59C1098.35 45.59 1098.75 45.99 1098.75 46.48Z" fill="white"/>
<path opacity="0.6" d="M689.148 77.14C689.558 77.14 689.898 77.48 689.898 77.89C689.898 78.3 689.568 78.64 689.148 78.64C688.738 78.64 688.398 78.3 688.398 77.89C688.398 77.48 688.738 77.14 689.148 77.14Z" fill="url(#paint3_linear)"/>
<path opacity="0.6" d="M727.171 95.64C727.511 95.64 727.791 95.92 727.791 96.26C727.791 96.6 727.511 96.88 727.171 96.88C726.831 96.88 726.551 96.6 726.551 96.26C726.551 95.92 726.831 95.64 727.171 95.64Z" fill="white"/>
<path opacity="0.6" d="M640.118 34.3199C641.478 34.3199 642.588 35.4299 642.588 36.7899C642.588 38.1499 641.478 39.2599 640.118 39.2599C638.758 39.2599 637.648 38.1499 637.648 36.7899C637.648 35.4199 638.758 34.3199 640.118 34.3199Z" fill="white"/>
<path opacity="0.6" d="M666.128 24.2C666.618 24.2 667.018 24.6 667.018 25.09C667.018 25.58 666.618 25.9799 666.128 25.9799C665.638 25.9799 665.238 25.58 665.238 25.09C665.238 24.6 665.638 24.2 666.128 24.2Z" fill="white"/>
<path opacity="0.6" d="M1089.13 228.25C1089.13 229.07 1088.47 229.73 1087.65 229.73C1086.83 229.73 1086.17 229.07 1086.17 228.25C1086.17 227.43 1086.83 226.77 1087.65 226.77C1088.46 226.76 1089.13 227.43 1089.13 228.25Z" fill="white"/>
<path opacity="0.6" d="M529 228.14C529 227.32 529.66 226.66 530.48 226.66C531.3 226.66 531.96 227.32 531.96 228.14C531.96 228.96 531.3 229.62 530.48 229.62C529.66 229.62 529 228.96 529 228.14Z" fill="white"/>
<path opacity="0.6" d="M557.531 246.47C557.531 245.11 558.641 244 560.001 244C561.361 244 562.471 245.11 562.471 246.47C562.471 247.83 561.361 248.94 560.001 248.94C558.641 248.94 557.531 247.83 557.531 246.47Z" fill="white"/>
<path opacity="0.6" d="M539.211 207.67C539.211 206.85 539.871 206.19 540.691 206.19C541.511 206.19 542.171 206.85 542.171 207.67C542.171 208.49 541.511 209.15 540.691 209.15C539.881 209.15 539.211 208.49 539.211 207.67Z" fill="white"/>
<path opacity="0.6" d="M538.31 69.14C538.31 69.43 538.08 69.66 537.79 69.66C537.5 69.66 537.27 69.43 537.27 69.14C537.27 68.85 537.5 68.62 537.79 68.62C538.08 68.62 538.31 68.85 538.31 69.14Z" fill="url(#paint4_linear)"/>
<path opacity="0.6" d="M551.9 41.24C551.9 41.58 551.62 41.86 551.28 41.86C550.94 41.86 550.66 41.58 550.66 41.24C550.66 40.9 550.94 40.62 551.28 40.62C551.62 40.62 551.9 40.9 551.9 41.24Z" fill="white"/>
</g>
<g opacity="0.6">
<path opacity="0.6" d="M536.2 76C536.2 76.29 535.97 76.52 535.68 76.52C535.39 76.52 535.16 76.29 535.16 76C535.16 75.71 535.39 75.48 535.68 75.48C535.97 75.47 536.2 75.71 536.2 76Z" fill="url(#paint5_linear)"/>
<path opacity="0.6" d="M568.289 10.08C568.289 10.49 567.949 10.83 567.539 10.83C567.129 10.83 566.789 10.49 566.789 10.08C566.789 9.66996 567.129 9.32996 567.539 9.32996C567.949 9.32996 568.289 9.66996 568.289 10.08Z" fill="url(#paint6_linear)"/>
<path opacity="0.6" d="M285.929 195.64C285.929 196.46 285.269 197.12 284.449 197.12C283.629 197.12 282.969 196.46 282.969 195.64C282.969 194.82 283.629 194.16 284.449 194.16C285.269 194.16 285.929 194.82 285.929 195.64Z" fill="white"/>
<path opacity="0.6" d="M322.42 115.43C322.42 116.79 321.31 117.9 319.95 117.9C318.59 117.9 317.48 116.79 317.48 115.43C317.48 114.07 318.59 112.96 319.95 112.96C321.31 112.96 322.42 114.07 322.42 115.43Z" fill="white"/>
<path opacity="0.6" d="M446.358 121.76C446.358 122.58 445.698 123.24 444.878 123.24C444.058 123.24 443.398 122.58 443.398 121.76C443.398 120.94 444.058 120.28 444.878 120.28C445.698 120.27 446.358 120.94 446.358 121.76Z" fill="white"/>
<path opacity="0.6" d="M334.589 89.44C334.589 90.26 333.929 90.92 333.109 90.92C332.289 90.92 331.629 90.26 331.629 89.44C331.629 88.62 332.289 87.96 333.109 87.96C333.929 87.96 334.589 88.63 334.589 89.44Z" fill="white"/>
<path opacity="0.6" d="M609.339 186.77C609.339 187.59 608.679 188.25 607.859 188.25C607.039 188.25 606.379 187.59 606.379 186.77C606.379 185.95 607.039 185.29 607.859 185.29C608.679 185.29 609.339 185.96 609.339 186.77Z" fill="white"/>
<path opacity="0.6" d="M580.811 168.45C580.811 169.81 579.701 170.92 578.341 170.92C576.981 170.92 575.871 169.81 575.871 168.45C575.871 167.09 576.981 165.98 578.341 165.98C579.701 165.98 580.811 167.08 580.811 168.45Z" fill="white"/>
<path opacity="0.6" d="M260.288 217.19C260.288 218.01 259.628 218.67 258.808 218.67C257.988 218.67 257.328 218.01 257.328 217.19C257.328 216.37 257.988 215.71 258.808 215.71C259.628 215.7 260.288 216.37 260.288 217.19Z" fill="white"/>
<path opacity="0.6" d="M549.799 48.1C549.799 48.44 549.519 48.72 549.179 48.72C548.839 48.72 548.559 48.44 548.559 48.1C548.559 47.76 548.839 47.48 549.179 47.48C549.519 47.48 549.799 47.76 549.799 48.1Z" fill="white"/>
<path opacity="0.6" d="M608.749 25.48C608.749 25.97 608.349 26.37 607.859 26.37C607.369 26.37 606.969 25.97 606.969 25.48C606.969 24.99 607.369 24.59 607.859 24.59C608.349 24.59 608.749 24.99 608.749 25.48Z" fill="white"/>
<path opacity="0.6" d="M199.148 56.14C199.558 56.14 199.898 56.48 199.898 56.89C199.898 57.3 199.568 57.64 199.148 57.64C198.738 57.64 198.398 57.3 198.398 56.89C198.398 56.48 198.738 56.14 199.148 56.14Z" fill="url(#paint7_linear)"/>
<path opacity="0.6" d="M237.171 74.64C237.511 74.64 237.791 74.92 237.791 75.26C237.791 75.6 237.511 75.88 237.171 75.88C236.831 75.88 236.551 75.6 236.551 75.26C236.551 74.92 236.831 74.64 237.171 74.64Z" fill="white"/>
<path opacity="0.6" d="M150.118 13.3199C151.478 13.3199 152.588 14.4299 152.588 15.7899C152.588 17.1499 151.478 18.2599 150.118 18.2599C148.758 18.2599 147.648 17.1499 147.648 15.7899C147.648 14.4199 148.758 13.3199 150.118 13.3199Z" fill="white"/>
<path opacity="0.6" d="M599.132 207.25C599.132 208.07 598.472 208.73 597.652 208.73C596.832 208.73 596.172 208.07 596.172 207.25C596.172 206.43 596.832 205.77 597.652 205.77C598.462 205.76 599.132 206.43 599.132 207.25Z" fill="white"/>
<path opacity="0.6" d="M39 207.14C39 206.32 39.66 205.66 40.48 205.66C41.3 205.66 41.96 206.32 41.96 207.14C41.96 207.96 41.3 208.62 40.48 208.62C39.66 208.62 39 207.96 39 207.14Z" fill="white"/>
<path opacity="0.6" d="M67.5312 225.47C67.5312 224.11 68.6413 223 70.0013 223C71.3613 223 72.4713 224.11 72.4713 225.47C72.4713 226.83 71.3613 227.94 70.0013 227.94C68.6413 227.94 67.5312 226.83 67.5312 225.47Z" fill="white"/>
<path opacity="0.6" d="M49.2109 186.67C49.2109 185.85 49.8709 185.19 50.6909 185.19C51.5109 185.19 52.1709 185.85 52.1709 186.67C52.1709 187.49 51.5109 188.15 50.6909 188.15C49.8809 188.15 49.2109 187.49 49.2109 186.67Z" fill="white"/>
<path opacity="0.6" d="M48.3095 48.14C48.3095 48.43 48.0795 48.66 47.7895 48.66C47.4995 48.66 47.2695 48.43 47.2695 48.14C47.2695 47.85 47.4995 47.62 47.7895 47.62C48.0795 47.62 48.3095 47.85 48.3095 48.14Z" fill="url(#paint8_linear)"/>
<path opacity="0.6" d="M61.9002 20.24C61.9002 20.58 61.6202 20.86 61.2802 20.86C60.9402 20.86 60.6602 20.58 60.6602 20.24C60.6602 19.9 60.9402 19.62 61.2802 19.62C61.6202 19.62 61.9002 19.9 61.9002 20.24Z" fill="white"/>
</g>
<g opacity="0.6">
<path opacity="0.6" d="M1007.86 101.302C1013.52 88.709 1007.9 73.9109 995.303 68.25C982.709 62.5891 967.911 68.209 962.25 80.8025C956.589 93.396 962.209 108.194 974.803 113.855C987.396 119.516 1002.19 113.896 1007.86 101.302Z" stroke="white" stroke-miterlimit="10"/>
<path opacity="0.6" d="M990.149 85.7297C983.979 83.5997 977.289 81.7097 972.119 78.6197C969.839 77.2397 968.049 75.7997 966.509 74.2797C965.189 75.7397 964.019 77.3897 963.039 79.2097C964.089 80.7497 965.229 82.2397 967.199 83.8097C971.969 87.6497 980.289 90.1797 987.549 92.7497C994.859 95.2297 1002.59 99.3697 1005.68 104.27C1005.79 104.43 1005.88 104.58 1005.97 104.74C1006.36 104.14 1006.73 103.51 1007.08 102.87C1007.83 101.47 1008.43 100.03 1008.89 98.5697C1008.29 97.3797 1007.51 96.1697 1006.34 94.8197C1002.85 90.8697 996.349 87.8197 990.149 85.7297Z" stroke="white" stroke-miterlimit="10"/>
<path opacity="0.6" d="M978.059 67.0497C982.949 70.3397 990.449 72.6497 997.059 74.9897C1000.55 76.1697 1004.14 77.7397 1007.27 79.5797C1005.03 75.2297 1001.5 71.4997 996.859 69.0097C990.849 65.7997 984.119 65.2897 978.059 67.0497Z" stroke="white" stroke-miterlimit="10"/>
<path opacity="0.6" d="M981.67 101.58C975.5 99.4497 968.81 97.5597 963.64 94.4697C962.3 93.6497 961.12 92.8197 960.07 91.9597C960.2 95.5197 961.09 99.0097 962.67 102.19C967.39 104.7 973.54 106.63 979.07 108.59C983.68 110.15 988.45 112.38 992.13 115.03C994.51 114.33 996.78 113.28 998.86 111.9C998.56 111.5 998.23 111.09 997.87 110.66C994.36 106.72 987.86 103.66 981.67 101.58Z" stroke="white" stroke-miterlimit="10"/>
</g>
<path opacity="0.6" d="M1073.95 145.18C1070.68 149.26 1064.72 149.92 1060.64 146.66C1056.56 143.39 1055.9 137.43 1059.16 133.35C1062.43 129.27 1068.39 128.61 1072.47 131.87C1076.56 135.14 1077.22 141.1 1073.95 145.18Z" stroke="white" stroke-miterlimit="10"/>
<path opacity="0.6" d="M1017.9 227.124C1016.18 229.28 1013.03 229.628 1010.87 227.906C1008.72 226.179 1008.37 223.031 1010.09 220.876C1011.82 218.72 1014.97 218.372 1017.12 220.094C1019.28 221.821 1019.63 224.969 1017.9 227.124Z" stroke="white" stroke-miterlimit="10"/>
<g opacity="0.6">
<path opacity="0.6" d="M451.734 59.4839C452.614 57.7639 453.684 56.1039 454.934 54.5339C464.974 41.9939 483.274 39.9639 495.814 50.0039C508.354 60.0439 510.384 78.3439 500.344 90.8839C499.174 92.3439 497.894 93.6639 496.524 94.8339" stroke="white" stroke-miterlimit="10"/>
<path opacity="0.6" d="M486.314 100.484C477.394 103.254 467.314 101.704 459.474 95.4239C451.664 89.1739 447.934 79.7138 448.644 70.4438" stroke="white" stroke-miterlimit="10"/>
<path opacity="0.6" d="M503.664 85.6739C508.434 91.3939 510.674 95.8239 509.254 97.6039C506.414 101.144 490.053 92.7639 472.703 78.8839C455.353 65.0039 443.593 50.8739 446.433 47.3239C447.843 45.5539 452.623 46.7539 459.213 50.1239L461.493 48.4539C441.863 35.4839 426.154 29.0139 422.694 33.3339C417.984 39.2139 437.763 62.8739 466.873 86.1739C495.983 109.474 523.393 123.584 528.103 117.704C531.563 113.374 521.793 99.4539 504.813 83.1239" stroke="white" stroke-miterlimit="10"/>
</g>
<path d="M554.28 287.289C543.039 287.289 533.636 295.164 531.179 305.732C525.683 293.196 513.241 284.434 498.757 284.434C487.461 284.434 477.411 289.761 470.927 298.053C464.978 286.761 453.192 279.074 439.614 279.074C427.061 279.074 416.032 285.662 409.742 295.582C405.558 290.52 399.249 287.298 392.192 287.298C383.371 287.298 375.732 292.335 371.927 299.707C361.803 285.585 345.343 276.389 326.74 276.389C309.107 276.389 293.395 284.647 283.189 297.534C278.256 287.835 268.243 281.204 256.688 281.204C244.791 281.204 234.52 288.235 229.754 298.403C225.403 293.247 218.919 289.974 211.668 289.974C201.997 289.974 193.684 295.803 189.989 304.164C185.5 289.633 172.051 279.082 156.145 279.082C142.253 279.082 130.227 287.145 124.426 298.88C121.609 294.474 116.695 291.542 111.107 291.542C106.359 291.542 102.119 293.656 99.2096 296.98C91.8017 282.167 76.5887 272 59.0018 272C34.1455 272 14 292.301 14 317.34V412H578V311.204C578.009 297.994 567.387 287.289 554.28 287.289Z" fill="white" fill-opacity="0.1"/>
<path d="M1117.32 287.289C1106.1 287.289 1096.71 295.164 1094.26 305.732C1088.78 293.196 1076.36 284.434 1061.9 284.434C1050.62 284.434 1040.59 289.761 1034.12 298.053C1028.18 286.761 1016.41 279.074 1002.86 279.074C990.329 279.074 979.32 285.662 973.04 295.582C968.864 290.52 962.566 287.298 955.522 287.298C946.716 287.298 939.091 292.335 935.292 299.707C925.186 285.585 908.756 276.389 890.186 276.389C872.584 276.389 856.9 284.647 846.711 297.534C841.788 287.835 831.793 281.204 820.258 281.204C808.382 281.204 798.129 288.235 793.371 298.403C789.028 293.247 782.555 289.974 775.317 289.974C765.664 289.974 757.365 295.803 753.677 304.164C749.196 289.633 735.771 279.082 719.893 279.082C706.026 279.082 694.021 287.145 688.23 298.88C685.418 294.474 680.513 291.542 674.934 291.542C670.195 291.542 665.963 293.656 663.059 296.98C655.664 282.167 640.478 272 622.922 272C598.11 272 578 292.301 578 317.34V412H1141V311.204C1141.01 297.994 1130.41 287.289 1117.32 287.289Z" fill="white" fill-opacity="0.1"/>
</g>
</g>
<defs>
<filter id="filter0_d" x="0" y="0" width="1150" height="370" filterUnits="userSpaceOnUse" color-interpolation-filters="sRGB">
<feFlood flood-opacity="0" result="BackgroundImageFix"/>
<feColorMatrix in="SourceAlpha" type="matrix" values="0 0 0 0 0 0 0 0 0 0 0 0 0 0 0 0 0 0 127 0"/>
<feOffset dy="10"/>
<feGaussianBlur stdDeviation="10"/>
<feColorMatrix type="matrix" values="0 0 0 0 0.160784 0 0 0 0 0.160784 0 0 0 0 0.164706 0 0 0 0.07 0"/>
<feBlend mode="normal" in2="BackgroundImageFix" result="effect1_dropShadow"/>
<feBlend mode="normal" in="SourceGraphic" in2="effect1_dropShadow" result="shape"/>
</filter>
<linearGradient id="paint0_linear" x1="35.5" y1="-185" x2="1388" y2="681.5" gradientUnits="userSpaceOnUse">
<stop stop-color="#5243AA"/>
<stop offset="1" stop-color="#FF494D"/>
</linearGradient>
<linearGradient id="paint1_linear" x1="1025.15" y1="96.9967" x2="1026.2" y2="96.9967" gradientUnits="userSpaceOnUse">
<stop stop-color="white"/>
<stop offset="1" stop-color="#FBE9F5"/>
</linearGradient>
<linearGradient id="paint2_linear" x1="1056.8" y1="31.084" x2="1058.29" y2="31.084" gradientUnits="userSpaceOnUse">
<stop stop-color="white"/>
<stop offset="1" stop-color="#FBE9F5"/>
</linearGradient>
<linearGradient id="paint3_linear" x1="689.151" y1="78.6393" x2="689.151" y2="77.1426" gradientUnits="userSpaceOnUse">
<stop stop-color="white"/>
<stop offset="1" stop-color="#FBE9F5"/>
</linearGradient>
<linearGradient id="paint4_linear" x1="537.258" y1="69.1372" x2="538.305" y2="69.1372" gradientUnits="userSpaceOnUse">
<stop stop-color="white"/>
<stop offset="1" stop-color="#FBE9F5"/>
</linearGradient>
<linearGradient id="paint5_linear" x1="535.155" y1="75.9967" x2="536.202" y2="75.9967" gradientUnits="userSpaceOnUse">
<stop stop-color="white"/>
<stop offset="1" stop-color="#FBE9F5"/>
</linearGradient>
<linearGradient id="paint6_linear" x1="566.796" y1="10.084" x2="568.293" y2="10.084" gradientUnits="userSpaceOnUse">
<stop stop-color="white"/>
<stop offset="1" stop-color="#FBE9F5"/>
</linearGradient>
<linearGradient id="paint7_linear" x1="199.151" y1="57.6393" x2="199.151" y2="56.1426" gradientUnits="userSpaceOnUse">
<stop stop-color="white"/>
<stop offset="1" stop-color="#FBE9F5"/>
</linearGradient>
<linearGradient id="paint8_linear" x1="47.2576" y1="48.1372" x2="48.3053" y2="48.1372" gradientUnits="userSpaceOnUse">
<stop stop-color="white"/>
<stop offset="1" stop-color="#FBE9F5"/>
</linearGradient>
<clipPath id="clip0">
<rect x="20" y="10" width="1110" height="330" rx="24" fill="white"/>
</clipPath>
</defs>
</svg>
