<svg width="32" height="32" viewBox="0 0 32 32" fill="none" xmlns="http://www.w3.org/2000/svg">
<path fill-rule="evenodd" clip-rule="evenodd" d="M6.66732 4.00004H25.334C26.8068 4.00004 28.0007 5.19395 28.0007 6.66671V25.3334C28.0007 26.8062 26.8068 28 25.334 28H6.66732C5.19456 28 4.00065 26.8062 4.00065 25.3334V6.66671C4.00065 5.19395 5.19456 4.00004 6.66732 4.00004ZM1.33398 6.66671C1.33398 3.72119 3.7218 1.33337 6.66732 1.33337H25.334C28.2794 1.33337 30.6673 3.72119 30.6673 6.66671V25.3334C30.6673 28.2788 28.2794 30.6667 25.334 30.6667H6.66732C3.7218 30.6667 1.33398 28.2788 1.33398 25.3334V6.66671ZM13.334 21.7735L21.334 16.0001L13.334 10.2266V21.7735Z" fill="white"/>
</svg>
