<svg width="60" height="60" viewBox="0 0 60 60" fill="none" xmlns="http://www.w3.org/2000/svg">
<circle cx="30" cy="30" r="30" fill="#8F92A1" fill-opacity="0.05"/>
<g clip-path="url(#clip0)">
<path d="M44.6774 19.3477H19.4853C18.912 19.3477 18.4473 19.8124 18.4473 20.3857V23.2163L19.2887 24.402H40.3654V35.5284L41.7454 36.9741H44.6774C45.2506 36.9741 45.7154 36.5093 45.7154 35.9361V20.3857C45.7154 19.8124 45.2506 19.3477 44.6774 19.3477Z" fill="#00C2FB"/>
<path d="M22.2813 20.3857C22.2813 19.8124 22.746 19.3477 23.3193 19.3477H19.4853C18.912 19.3477 18.4473 19.8124 18.4473 20.3857V23.2163L19.2887 24.402H23.1227L22.2813 23.2163V20.3857Z" fill="#00ABF2"/>
<path d="M44.6767 19.3477H25.2803C25.5987 20.709 26.1148 22.0063 26.7996 23.2162L28.1107 23.9595H39.6106L40.6581 31.0409L41.7448 31.9939C42.1392 32.0167 42.5366 32.0294 42.9374 32.0294C43.882 32.0294 44.8094 31.965 45.7148 31.8414V20.3857C45.7147 19.8124 45.25 19.3477 44.6767 19.3477Z" fill="#00D2FC"/>
<path d="M44.6765 19.3477H30.8027C31.1475 20.4344 31.7159 21.821 32.6363 23.2162L34.163 23.524L40.8673 27.7725L41.7444 29.1324C42.9403 29.3575 44.2592 29.4743 45.7144 29.454V20.3857C45.7145 19.8124 45.2498 19.3477 44.6765 19.3477Z" fill="#62DDFC"/>
<path d="M41.4123 26.7879L41.7447 26.4901V24.2543C41.7447 23.681 41.2799 23.2163 40.7067 23.2163H15.5146C14.9413 23.2163 14.4766 23.681 14.4766 24.2543V26.4901L14.9721 26.8508V29.4563L14.4766 30.0662V39.8047C14.4766 40.378 14.9413 40.8427 15.5146 40.8427H40.7067C41.2799 40.8427 41.7447 40.378 41.7447 39.8047V30.0662L41.4123 29.5535V26.7879Z" fill="#DBEDFF"/>
<path d="M17.6821 39.8047V30.0662L18.1776 29.4563V26.8508L17.6821 26.4901V24.2543C17.6821 23.681 18.1468 23.2163 18.7201 23.2163H15.5146C14.9413 23.2163 14.4766 23.681 14.4766 24.2543V26.4901L14.9721 26.8508V29.4563L14.4766 30.0662V39.8047C14.4766 40.378 14.9413 40.8427 15.5146 40.8427H18.7201C18.1468 40.8427 17.6821 40.378 17.6821 39.8047Z" fill="#B5DCFF"/>
<path d="M14.4766 26.49H41.7447V30.066H14.4766V26.49Z" fill="#8479C2"/>
<path d="M14.4766 26.49H17.6821V30.066H14.4766V26.49Z" fill="#6E60B8"/>
<path d="M38.3175 34.6399H34.5463C34.2179 34.6399 33.9492 34.9086 33.9492 35.237V37.351C33.9492 37.6794 34.2179 37.9481 34.5463 37.9481H38.3175C38.646 37.9481 38.9147 37.6794 38.9147 37.351V35.237C38.9146 34.9086 38.6459 34.6399 38.3175 34.6399Z" fill="#FFC365"/>
<path d="M36.4319 37.351V35.237C36.4319 34.9086 36.7006 34.6399 37.029 34.6399H34.5463C34.2179 34.6399 33.9492 34.9086 33.9492 35.237V37.351C33.9492 37.6794 34.2179 37.9481 34.5463 37.9481H37.029C36.7006 37.9481 36.4319 37.6794 36.4319 37.351Z" fill="#FFA90F"/>
<path d="M22.8411 36.4711H17.8757C17.6153 36.4711 17.4043 36.26 17.4043 35.9997C17.4043 35.7394 17.6153 35.5283 17.8757 35.5283H22.8411C23.1014 35.5283 23.3124 35.7394 23.3124 35.9997C23.3124 36.26 23.1014 36.4711 22.8411 36.4711Z" fill="#8BCAFF"/>
<path d="M19.0175 32.8014H17.8757C17.6153 32.8014 17.4043 32.5904 17.4043 32.33C17.4043 32.0697 17.6153 31.8586 17.8757 31.8586H19.0175C19.2779 31.8586 19.4889 32.0697 19.4889 32.33C19.4889 32.5904 19.2779 32.8014 19.0175 32.8014Z" fill="#8BCAFF"/>
<path d="M22.3066 32.8014H21.1647C20.9044 32.8014 20.6934 32.5904 20.6934 32.33C20.6934 32.0697 20.9044 31.8586 21.1647 31.8586H22.3066C22.5669 31.8586 22.778 32.0697 22.778 32.33C22.778 32.5904 22.5669 32.8014 22.3066 32.8014Z" fill="#8BCAFF"/>
<path d="M25.5966 32.8014H24.4548C24.1944 32.8014 23.9834 32.5904 23.9834 32.33C23.9834 32.0697 24.1944 31.8586 24.4548 31.8586H25.5966C25.857 31.8586 26.068 32.0697 26.068 32.33C26.068 32.5904 25.857 32.8014 25.5966 32.8014Z" fill="#8BCAFF"/>
<path d="M28.8857 32.8014H27.7438C27.4835 32.8014 27.2725 32.5904 27.2725 32.33C27.2725 32.0697 27.4835 31.8586 27.7438 31.8586H28.8857C29.146 31.8586 29.3571 32.0697 29.3571 32.33C29.3571 32.5904 29.146 32.8014 28.8857 32.8014Z" fill="#8BCAFF"/>
<path d="M22.8411 38.4196H17.8757C17.6153 38.4196 17.4043 38.2085 17.4043 37.9482C17.4043 37.6878 17.6153 37.4768 17.8757 37.4768H22.8411C23.1014 37.4768 23.3124 37.6878 23.3124 37.9482C23.3124 38.2085 23.1014 38.4196 22.8411 38.4196Z" fill="#8BCAFF"/>
</g>
<defs>
<clipPath id="clip0">
<rect width="31.2381" height="31.2381" fill="white" transform="translate(14.4766 14.4761)"/>
</clipPath>
</defs>
</svg>
