<svg width="80" height="80" viewBox="0 0 80 80" fill="none" xmlns="http://www.w3.org/2000/svg">
<circle cx="40" cy="40" r="40" fill="#DE350B" fill-opacity="0.05"/>
<path fill-rule="evenodd" clip-rule="evenodd" d="M23.332 39.9999C23.332 30.7952 30.7939 23.3333 39.9987 23.3333C49.2034 23.3333 56.6654 30.7952 56.6654 39.9999C56.6654 49.2046 49.2034 56.6666 39.9987 56.6666C30.7939 56.6666 23.332 49.2046 23.332 39.9999ZM39.9987 53.3333C32.6349 53.3333 26.6654 47.3638 26.6654 39.9999C26.6654 32.6361 32.6349 26.6666 39.9987 26.6666C47.3625 26.6666 53.332 32.6361 53.332 39.9999C53.332 47.3638 47.3625 53.3333 39.9987 53.3333ZM39.9987 29.9999C40.9192 29.9999 41.6654 30.7461 41.6654 31.6666V41.6666C41.6654 42.5871 40.9192 43.3333 39.9987 43.3333C39.0782 43.3333 38.332 42.5871 38.332 41.6666V31.6666C38.332 30.7461 39.0782 29.9999 39.9987 29.9999ZM39.9987 46.6666C39.0782 46.6666 38.332 47.4128 38.332 48.3333C38.332 49.2538 39.0782 49.9999 39.9987 49.9999C40.9192 49.9999 41.6654 49.2538 41.6654 48.3333C41.6654 47.4128 40.9192 46.6666 39.9987 46.6666Z" fill="#DE350B"/>
</svg>
