<svg width="48" height="48" viewBox="0 0 48 48" fill="none" xmlns="http://www.w3.org/2000/svg">
<path d="M4.77412 7H15.2971C15.9863 7 16.6229 7.36945 16.9667 7.9688L18.6987 10.3433C19.0426 10.9426 19.6792 11.3121 20.3683 11.3121H46V38.4219C46 39.8457 44.8499 41 43.4312 41H4.56882C3.15015 41 2 39.8457 2 38.4219V14.3194C2 12.3266 2.30677 10.3457 2.90952 8.44698C3.13032 7.59482 3.89683 7 4.77412 7Z" fill="#F6C358"/>
<path d="M40 11H6V25H40V11Z" fill="#EBF0F3"/>
<path d="M44.0734 8H33.4692C32.7151 8 32.0302 8.43689 31.7168 9.11792L29.9022 13.0611C29.5888 13.7421 28.904 14.179 28.1499 14.179H2V38.4494C2 39.858 3.15014 41 4.56882 41H43.4312C44.8499 41 46 39.858 46 38.4494V9.91295C46 8.85651 45.1374 8 44.0734 8Z" fill="#FCD462"/>
</svg>
