<svg width="44" height="44" viewBox="0 0 44 44" fill="none" xmlns="http://www.w3.org/2000/svg">
<path d="M5.49997 0H28.8653L41.2499 12.3365V41.25C41.2499 42.7693 40.018 44 38.4999 44H5.49997C3.98193 44 2.75 42.7693 2.75 41.25V2.74997C2.75 1.23065 3.98207 0 5.49997 0Z" fill="#EDF0FF"/>
<rect x="10" y="16" width="24" height="24" rx="4" fill="#2379DB"/>
<path d="M16.1782 31.128C15.2342 31.128 14.5755 30.744 14.2022 29.976L15.5462 29.184C15.6742 29.4453 15.8822 29.576 16.1702 29.576C16.4955 29.576 16.6582 29.424 16.6582 29.12V25.4H18.2582V29.16C18.2582 29.7733 18.0742 30.256 17.7062 30.608C17.3435 30.9547 16.8342 31.128 16.1782 31.128ZM19.1813 25.4H21.4213C21.9973 25.4 22.4826 25.584 22.8773 25.952C23.2666 26.3093 23.4613 26.7947 23.4613 27.408C23.4613 28.016 23.2666 28.504 22.8773 28.872C22.4826 29.2347 21.9973 29.416 21.4213 29.416H20.7812V31H19.1813V25.4ZM20.7812 27.864H21.4213C21.5493 27.864 21.6533 27.824 21.7333 27.744C21.8186 27.6587 21.8613 27.5467 21.8613 27.408C21.8613 27.2693 21.8186 27.16 21.7333 27.08C21.6533 26.9947 21.5493 26.952 21.4213 26.952H20.7812V27.864ZM26.9061 27.696H29.7541V28.36C29.7541 29.1653 29.4955 29.8267 28.9781 30.344C28.4661 30.8667 27.7915 31.128 26.9541 31.128C26.0795 31.128 25.3648 30.8507 24.8101 30.296C24.2555 29.7307 23.9781 29.0347 23.9781 28.208C23.9781 27.3813 24.2555 26.6853 24.8101 26.12C25.3595 25.5547 26.0528 25.272 26.8901 25.272C27.4075 25.272 27.8821 25.3893 28.3141 25.624C28.7515 25.8533 29.0981 26.1707 29.3541 26.576L27.9941 27.352C27.7701 27.0107 27.4128 26.84 26.9221 26.84C26.5221 26.84 26.1968 26.968 25.9461 27.224C25.7008 27.4747 25.5781 27.8053 25.5781 28.216C25.5781 28.6053 25.6928 28.9413 25.9221 29.224C26.1568 29.5067 26.5115 29.648 26.9861 29.648C27.5408 29.648 27.9115 29.4507 28.0981 29.056H26.9061V27.696Z" fill="white"/>
<path d="M41.2101 12.3748H31.625C30.1069 12.3748 28.875 11.1429 28.875 9.62487V0.0273438L41.2101 12.3748Z" fill="#2379DB"/>
</svg>
