<svg width="160" height="41" viewBox="0 0 160 41" fill="none" xmlns="http://www.w3.org/2000/svg">
<g clip-path="url(#clip0)">
<path d="M61.9036 27.7595C55.5164 27.7595 53.1279 25.1198 53.1279 20.6017H57.1508C57.1508 23.3436 58.5092 24.207 62.04 24.207C64.6311 24.207 65.4868 23.5973 65.4868 22.6317C65.4868 21.3383 63.3215 20.7532 60.7339 19.8651C56.9692 18.5964 53.9309 17.5814 53.9309 14.0783C53.9309 11.0334 56.3232 9.37695 60.898 9.37695C66.3284 9.37695 68.7693 12.1506 68.7693 15.7206H64.7462C64.7462 13.5391 63.084 12.9294 60.905 12.9294C59.0961 12.9294 57.9645 13.3347 57.9645 14.251C57.9645 15.0616 58.3906 15.3647 61.2333 16.3303C64.502 17.4475 69.5061 18.8678 69.5061 22.6C69.4993 25.6521 67.3619 27.7595 61.9036 27.7595Z" fill="white"/>
<path d="M77.6944 14.4346C81.1622 14.4346 84.3296 16.3377 84.5077 19.9923H80.4846C80.3344 18.8504 79.3044 17.987 77.6909 17.987C75.7772 17.987 74.7715 19.1289 74.7715 21.0848C74.7715 23.0408 75.7772 24.2073 77.6909 24.2073C79.3009 24.2073 80.3311 23.3439 80.4846 22.202H84.5077C84.3332 25.8533 81.1622 27.7598 77.6944 27.7598C73.6435 27.7598 70.752 25.3739 70.752 21.0848C70.752 16.7958 73.6435 14.4346 77.6944 14.4346Z" fill="white"/>
<path d="M90.8431 19.9676L94.8416 19.4108C94.8416 18.3535 94.0383 17.7333 92.3029 17.7333C90.6929 17.7333 89.7886 18.4205 89.7886 19.587H86.0168C86.0168 16.3377 88.7583 14.4346 92.3029 14.4346C95.8475 14.4346 98.8752 16.1368 98.8752 20.3483V23.95H100.712V27.5059H97.9182C96.71 27.5059 96.0326 26.8188 96.0326 25.603V25.3491L96.661 23.8267H95.6554C95.1769 25.9413 93.944 27.7598 90.3995 27.7598C86.4499 27.7598 85.7725 25.321 85.7725 24.0029C85.7655 21.7932 87.0716 20.4998 90.8431 19.9676ZM91.1714 24.1967C93.3853 24.1967 94.8416 23.2558 94.8416 21.684L91.5975 22.1386C90.3927 22.3183 89.7886 22.491 89.7886 23.2311C89.7886 23.9712 90.4938 24.2073 91.1714 24.2073V24.1967Z" fill="white"/>
<path d="M101.704 23.9496H105.228V12.2526L102.207 12.4041V8.85167L107.061 8.67544C108.458 8.62257 109.251 9.38029 109.251 10.8076V23.9496H112.771V27.5054H101.704V23.9496Z" fill="white"/>
<path d="M120.212 14.4346C124.159 14.4346 126.924 16.7958 126.924 20.6796V21.9483H117.297C117.297 23.4179 118.344 24.4575 120.638 24.4575C122.035 24.4575 123.104 23.9501 123.355 22.9879H127.379C127.127 24.8382 125.039 27.7598 120.638 27.7598C115.749 27.7598 113.521 24.5597 113.521 20.9333C113.521 16.8698 116.263 14.4346 120.212 14.4346ZM123.153 19.6645C123.153 18.6989 122.454 17.7333 120.212 17.7333C117.971 17.7333 117.297 18.6989 117.297 19.6645H123.153Z" fill="white"/>
<path d="M139.144 19.4352V14.688H143.171V27.5057H139.144V25.9409L139.898 23.6572H138.893C138.39 25.9409 136.797 27.7454 134.091 27.7454C130.847 27.7454 128.888 25.5602 128.888 21.6026V14.688H132.911V20.9823C132.911 23.3154 133.588 24.207 135.526 24.207C137.712 24.207 139.144 23.0369 139.144 19.4352Z" fill="white"/>
<path d="M149.201 14.6883V15.4742L148.464 17.7615H149.47C150.126 16.0593 151.331 14.4346 154.474 14.4346C158.148 14.4346 159.981 17.4795 159.981 21.1095C159.981 24.7395 158.148 27.7598 154.474 27.7598C151.331 27.7598 150.126 26.1352 149.47 24.4329H148.464L149.218 26.7165V32.3272H145.178V14.6883H149.201ZM152.571 24.2038C154.733 24.2038 155.941 23.2875 155.941 21.106C155.941 18.9245 154.733 17.9835 152.571 17.9835C150.409 17.9835 149.201 18.9245 149.201 21.106C149.201 23.2875 150.409 24.2073 152.571 24.2073V24.2038Z" fill="white"/>
<path d="M20.313 13.3966C21.7053 13.3964 23.0664 13.8128 24.2242 14.5933C25.3819 15.3738 26.2842 16.4832 26.8174 17.7813C27.3503 19.0794 27.4897 20.5078 27.2181 21.8859C26.9465 23.264 26.2762 24.5299 25.2916 25.5236C24.3071 26.5169 23.0527 27.1937 21.6872 27.4678C20.3216 27.7419 18.9061 27.6009 17.6199 27.0631C16.3336 26.5253 15.2342 25.6147 14.4608 24.4463C13.6875 23.2779 13.2748 21.9043 13.275 20.4992C13.2772 18.6161 14.0194 16.8109 15.3388 15.4793C16.6582 14.1478 18.4471 13.3988 20.313 13.3966ZM20.313 9.83154C18.222 9.83154 16.178 10.4573 14.4395 11.6296C12.701 12.802 11.346 14.4683 10.5458 16.4179C9.74571 18.3674 9.53643 20.5126 9.94443 22.5822C10.3525 24.6518 11.3594 26.5529 12.838 28.0448C14.3166 29.5367 16.2005 30.5529 18.2513 30.9644C20.302 31.3759 22.4277 31.1643 24.3595 30.3567C26.2912 29.5491 27.9421 28.1815 29.1038 26.4268C30.2652 24.6721 30.8851 22.6093 30.8848 20.4992C30.8848 19.0982 30.6112 17.7109 30.0801 16.4166C29.5487 15.1222 28.77 13.9462 27.7882 12.9556C26.8066 11.965 25.6412 11.1793 24.3585 10.6432C23.0759 10.1072 21.7012 9.83139 20.313 9.83154Z" fill="white"/>
<path d="M20.3131 3.56505C29.5689 3.56505 37.0944 11.1622 37.0944 20.4994C37.0944 29.8366 29.5664 37.435 20.3131 37.435C11.0597 37.435 3.53284 29.8379 3.53284 20.4994C3.53284 11.161 11.0609 3.56505 20.3131 3.56505ZM20.3131 3.4982e-08C16.2953 4.18999e-08 12.3677 1.20237 9.02708 3.45506C5.68644 5.70776 3.08273 8.90958 1.54524 12.6556C0.0077463 16.4017 -0.39447 20.5238 0.389447 24.5005C1.17337 28.4773 3.10821 32.1301 5.94931 34.997C8.79039 37.8643 12.4101 39.8166 16.3507 40.6075C20.2914 41.3984 24.3759 40.9922 28.0878 39.4405C31.7996 37.8886 34.9723 35.2608 37.2043 31.8894C39.4363 28.5178 40.6275 24.5541 40.6272 20.4994C40.6272 17.8073 40.1018 15.1415 39.0809 12.6543C38.06 10.1672 36.5635 7.90728 34.6771 6.00372C32.791 4.10015 30.5515 2.59021 28.0868 1.56008C25.6223 0.52996 22.9807 -0.000157233 20.3131 3.4982e-08Z" fill="white"/>
</g>
<defs>
<clipPath id="clip0">
<rect width="160" height="41" fill="white"/>
</clipPath>
</defs>
</svg>
