<svg width="60" height="61" viewBox="0 0 60 61" fill="none" xmlns="http://www.w3.org/2000/svg">
<rect opacity="0.08" y="0.0400391" width="60" height="60" rx="16" fill="#FF494D"/>
<path fill-rule="evenodd" clip-rule="evenodd" d="M23.5 18.75C26.2614 18.75 28.5 20.9886 28.5 23.75C28.5 26.5114 26.2614 28.75 23.5 28.75C20.7386 28.75 18.5 26.5114 18.5 23.75C18.5 20.9886 20.7386 18.75 23.5 18.75ZM23.5 21.25C22.1193 21.25 21 22.3693 21 23.75C21 25.1307 22.1193 26.25 23.5 26.25C24.8807 26.25 26 25.1307 26 23.75C26 22.3693 24.8807 21.25 23.5 21.25ZM36 18.75C38.7614 18.75 41 20.9886 41 23.75C41 26.5114 38.7614 28.75 36 28.75C33.2386 28.75 31 26.5114 31 23.75C31 20.9886 33.2386 18.75 36 18.75ZM36 21.25C34.6193 21.25 33.5 22.3693 33.5 23.75C33.5 25.1307 34.6193 26.25 36 26.25C37.3807 26.25 38.5 25.1307 38.5 23.75C38.5 22.3693 37.3807 21.25 36 21.25ZM28.5 36.25C28.5 33.4886 26.2614 31.25 23.5 31.25C20.7386 31.25 18.5 33.4886 18.5 36.25C18.5 39.0114 20.7386 41.25 23.5 41.25C26.2614 41.25 28.5 39.0114 28.5 36.25ZM21 36.25C21 34.8693 22.1193 33.75 23.5 33.75C24.8807 33.75 26 34.8693 26 36.25C26 37.6307 24.8807 38.75 23.5 38.75C22.1193 38.75 21 37.6307 21 36.25ZM36 31.25C38.7614 31.25 41 33.4886 41 36.25C41 39.0114 38.7614 41.25 36 41.25C33.2386 41.25 31 39.0114 31 36.25C31 33.4886 33.2386 31.25 36 31.25ZM36 33.75C34.6193 33.75 33.5 34.8693 33.5 36.25C33.5 37.6307 34.6193 38.75 36 38.75C37.3807 38.75 38.5 37.6307 38.5 36.25C38.5 34.8693 37.3807 33.75 36 33.75Z" fill="#FF494D"/>
</svg>
