<svg width="44" height="44" viewBox="0 0 44 44" fill="none" xmlns="http://www.w3.org/2000/svg">
<path d="M5.74997 0H29.1153L41.4999 12.3365V41.25C41.4999 42.7693 40.268 44 38.7499 44H5.74997C4.23193 44 3 42.7693 3 41.25V2.74997C3 1.23065 4.23207 0 5.74997 0Z" fill="#FFE2E2"/>
<rect x="10" y="16" width="24" height="24" rx="4" fill="#DE5845"/>
<path d="M15.4422 25.4H17.6822C18.2582 25.4 18.7435 25.584 19.1382 25.952C19.5275 26.3093 19.7222 26.7947 19.7222 27.408C19.7222 28.016 19.5275 28.504 19.1382 28.872C18.7435 29.2347 18.2582 29.416 17.6822 29.416H17.0422V31H15.4422V25.4ZM17.0422 27.864H17.6822C17.8102 27.864 17.9142 27.824 17.9942 27.744C18.0795 27.6587 18.1222 27.5467 18.1222 27.408C18.1222 27.2693 18.0795 27.16 17.9942 27.08C17.9142 26.9947 17.8102 26.952 17.6822 26.952H17.0422V27.864ZM20.4 25.4H22.72C23.488 25.4 24.1333 25.6693 24.656 26.208C25.1787 26.7467 25.44 27.4107 25.44 28.2C25.44 28.9947 25.1787 29.6613 24.656 30.2C24.1387 30.7333 23.4933 31 22.72 31H20.4V25.4ZM22.08 29.448H22.72C23.0453 29.448 23.312 29.3333 23.52 29.104C23.7333 28.8693 23.84 28.568 23.84 28.2C23.84 27.832 23.7333 27.5333 23.52 27.304C23.312 27.0693 23.0453 26.952 22.72 26.952H22.08V29.448ZM29.7206 25.4V26.952H27.8406V27.68H29.6806V29.232H27.8406V31H26.2406V25.4H29.7206Z" fill="white"/>
<path d="M41.2101 12.3748H31.625C30.1069 12.3748 28.875 11.1429 28.875 9.62487V0.0273438L41.2101 12.3748Z" fill="#DE5845"/>
</svg>
