<svg width="48" height="48" viewBox="0 0 48 48" fill="none" xmlns="http://www.w3.org/2000/svg">
<path d="M41 24V8C41 6.895 40.105 6 39 6H12C10.895 6 10 6.895 10 8V24H41Z" fill="#E8457C"/>
<path d="M41 24V40C41 41.105 40.105 42 39 42H12C10.895 42 10 41.105 10 40V24H41Z" fill="#8C193F"/>
<path d="M41 24H10V11H42.001C43.287 11 44.239 12.196 43.95 13.45L41 24Z" fill="#BC1948"/>
<path opacity="0.05" d="M21.33 13H10V37H21.33C23.363 37 25.011 35.352 25.011 33.319V16.681C25.011 14.648 23.363 13 21.33 13Z" fill="black"/>
<path opacity="0.07" d="M21.224 36H10V13.333H21.224C22.948 13.333 24.345 14.73 24.345 16.454V32.879C24.344 34.603 22.947 36 21.224 36Z" fill="black"/>
<path opacity="0.09" d="M21.117 35H10V13.667H21.117C22.531 13.667 23.677 14.813 23.677 16.227V32.44C23.678 33.854 22.531 35 21.117 35Z" fill="black"/>
<path d="M21.0117 34H5.01172C3.90672 34 3.01172 33.105 3.01172 32V16C3.01172 14.895 3.90672 14 5.01172 14H21.0117C22.1167 14 23.0117 14.895 23.0117 16V32C23.0117 33.105 22.1167 34 21.0117 34Z" fill="url(#paint0_linear)"/>
<path d="M8.90796 29C8.75719 29 8.61249 28.9529 8.48902 28.8642C8.03803 28.539 7.97737 28.1772 8.00597 27.9306C8.08481 27.2527 8.95692 26.5432 10.5989 25.8203C11.2505 24.4478 11.8704 22.7567 12.24 21.3438C11.8076 20.4394 11.3874 19.2659 11.6937 18.5776C11.8011 18.3365 11.935 18.1516 12.1849 18.0716C12.2837 18.04 12.5333 18 12.6251 18C12.8435 18 13.0354 18.2703 13.1714 18.4368C13.2992 18.5934 13.5891 18.9253 13.0098 21.2693C13.5938 22.4286 14.4213 23.6095 15.2141 24.4182C15.7821 24.3195 16.2708 24.2691 16.6689 24.2691C17.3474 24.2691 17.7585 24.4211 17.9262 24.7343C18.0648 24.9933 18.008 25.296 17.7572 25.6337C17.5159 25.9581 17.1832 26.1297 16.7954 26.1297C16.2686 26.1297 15.6552 25.8098 14.9711 25.1781C13.742 25.4251 12.3067 25.8657 11.1465 26.3533C10.7843 27.092 10.4373 27.687 10.1141 28.1234C9.67002 28.721 9.28704 29 8.90796 29ZM10.0612 26.8655C9.13541 27.3656 8.75806 27.7766 8.73077 28.0081C8.72643 28.0464 8.71474 28.1472 8.91749 28.2963C8.98204 28.2767 9.35896 28.1114 10.0612 26.8655ZM15.9692 25.0157C16.3223 25.2768 16.4085 25.4088 16.6395 25.4088C16.7408 25.4088 17.0298 25.4047 17.1637 25.2252C17.2282 25.1382 17.2534 25.0824 17.2633 25.0524C17.21 25.0253 17.1394 24.9704 16.7543 24.9704C16.5355 24.9708 16.2604 24.9799 15.9692 25.0157ZM12.733 22.2749C12.4232 23.3051 12.0143 24.4174 11.5745 25.4247C12.48 25.087 13.4643 24.7921 14.3888 24.5835C13.8039 23.9306 13.2195 23.1152 12.733 22.2749ZM12.47 18.7512C12.4276 18.765 11.8938 19.4829 12.5116 20.0904C12.9227 19.2097 12.4886 18.7454 12.47 18.7512Z" fill="white"/>
<defs>
<linearGradient id="paint0_linear" x1="3.54172" y1="14.53" x2="22.4217" y2="33.41" gradientUnits="userSpaceOnUse">
<stop stop-color="#C32050"/>
<stop offset="0.5" stop-color="#BC1948"/>
<stop offset="1" stop-color="#9C1942"/>
</linearGradient>
</defs>
</svg>
