<svg width="28" height="28" viewBox="0 0 28 28" fill="none" xmlns="http://www.w3.org/2000/svg">
<path fill-rule="evenodd" clip-rule="evenodd" d="M13.9993 0.666992C6.63555 0.666992 0.666016 6.63653 0.666016 14.0003C0.666016 21.3641 6.63555 27.3337 13.9993 27.3337C21.3631 27.3337 27.3327 21.3641 27.3327 14.0003C27.3327 6.63653 21.3631 0.666992 13.9993 0.666992ZM3.33268 14.0003C3.33268 8.10929 8.10831 3.33366 13.9993 3.33366C19.8904 3.33366 24.666 8.10929 24.666 14.0003C24.666 19.8914 19.8904 24.667 13.9993 24.667C8.10831 24.667 3.33268 19.8914 3.33268 14.0003ZM13.9993 6.00033C14.7357 6.00033 15.3327 6.59729 15.3327 7.33366V12.667H20.666C21.4024 12.667 21.9993 13.2639 21.9993 14.0003C21.9993 14.7367 21.4024 15.3337 20.666 15.3337H15.3327V20.667C15.3327 21.4034 14.7357 22.0003 13.9993 22.0003C13.2629 22.0003 12.666 21.4034 12.666 20.667V15.3337H7.33268C6.59631 15.3337 5.99935 14.7367 5.99935 14.0003C5.99935 13.2639 6.59631 12.667 7.33268 12.667H12.666V7.33366C12.666 6.59729 13.2629 6.00033 13.9993 6.00033Z" fill="#FF494D"/>
</svg>
