<svg width="48" height="48" viewBox="0 0 48 48" fill="none" xmlns="http://www.w3.org/2000/svg">
<path d="M8 24C8 33.941 16.059 42 26 42C35.941 42 44 33.941 44 24H26H8Z" fill="#D35230"/>
<path d="M26 6V24H44C44 14.059 35.941 6 26 6Z" fill="#FF8F6B"/>
<path d="M26 6C16.059 6 8 14.059 8 24H26V6Z" fill="#ED6C47"/>
<path opacity="0.05" d="M26 16.681C26 14.648 24.352 13 22.319 13H11.774C9.417 16.044 8 19.852 8 24C8 29.116 10.145 33.723 13.571 37H22.318C24.352 37 26 35.352 26 33.319V16.681Z" fill="black"/>
<path opacity="0.07" d="M22.213 13.333H11.525C9.32 16.321 8 20.002 8 24C8 28.617 9.753 32.814 12.611 36H22.213C23.937 36 25.334 34.603 25.334 32.879V16.454C25.333 14.731 23.936 13.333 22.213 13.333Z" fill="black"/>
<path opacity="0.09" d="M22.106 13.667H11.276C9.218 16.593 8 20.151 8 24C8 28.148 9.417 31.956 11.774 35H22.106C23.52 35 24.666 33.854 24.666 32.44V16.227C24.667 14.813 23.52 13.667 22.106 13.667Z" fill="black"/>
<path d="M22 34H6C4.895 34 4 33.105 4 32V16C4 14.895 4.895 14 6 14H22C23.105 14 24 14.895 24 16V32C24 33.105 23.105 34 22 34Z" fill="url(#paint0_linear)"/>
<path d="M14.673 19.0117H10V29.0117H12.024V25.4907H14.3C16.176 25.4907 17.697 23.9697 17.697 22.0937V22.0357C17.697 20.3657 16.343 19.0117 14.673 19.0117ZM15.57 22.3577C15.57 23.2167 14.873 23.9137 14.014 23.9137H12.024V20.5887H14.014C14.873 20.5887 15.57 21.2857 15.57 22.1447V22.3577Z" fill="white"/>
<defs>
<linearGradient id="paint0_linear" x1="4.586" y1="14.586" x2="22.77" y2="32.77" gradientUnits="userSpaceOnUse">
<stop stop-color="#CA4E2A"/>
<stop offset="1" stop-color="#B63016"/>
</linearGradient>
</defs>
</svg>
