<svg width="86" height="201" viewBox="0 0 86 201" fill="none" xmlns="http://www.w3.org/2000/svg">
<path opacity="0.5" d="M42.9656 115.47C34.1556 115.47 27.0156 122.61 27.0156 131.42C27.0156 154.32 42.9656 169.3 42.9656 200.28C42.9656 169.29 58.9156 154.32 58.9156 131.42C58.9156 122.61 51.7756 115.47 42.9656 115.47Z" fill="white"/>
<path d="M42.9652 115.47C37.0652 115.47 32.2852 120.25 32.2852 126.15C32.2852 141.48 42.9652 151.51 42.9652 172.25C42.9652 151.5 53.6452 141.48 53.6452 126.15C53.6452 120.25 48.8652 115.47 42.9652 115.47Z" fill="white"/>
<path d="M53.7063 119.6L31.7663 119.49C30.7363 119.48 29.9062 118.64 29.9062 117.61L29.9263 113.54L55.6063 113.67L55.5863 117.74C55.5763 118.77 54.7363 119.6 53.7063 119.6Z" fill="url(#paint0_linear)"/>
<path d="M69.6173 77.1101L83.7373 96.9701C85.4273 99.3501 86.0073 102.35 85.3073 105.19L78.6373 132.26C78.4173 133.14 77.3373 133.46 76.6673 132.84L55.2773 113.35L69.6173 77.1101Z" fill="url(#paint1_linear)"/>
<path d="M16.146 76.9301L1.89603 96.7C0.186028 99.07 -0.403982 102.07 0.276018 104.91L6.75601 132.03C6.96601 132.91 8.04603 133.24 8.71603 132.63L30.236 113.29L16.146 76.9301Z" fill="url(#paint2_linear)"/>
<path d="M43.225 0C18.945 19.77 5.49501 82.28 25.025 112C25.625 112.92 26.555 113.47 27.545 113.48L57.855 113.64C58.845 113.65 59.775 113.1 60.385 112.19C80.205 82.68 67.315 20.02 43.225 0Z" fill="url(#paint3_linear)"/>
<path d="M43.2251 0C34.4551 7.14 27.1151 19.88 22.2151 34.62C14.4251 34.25 63.8851 34.79 63.8851 34.79C59.1351 20.02 51.9251 7.22 43.2251 0Z" fill="url(#paint4_linear)"/>
<path d="M42.9348 74.2C50.6503 74.2 56.9048 67.9454 56.9048 60.23C56.9048 52.5146 50.6503 46.26 42.9348 46.26C35.2194 46.26 28.9648 52.5146 28.9648 60.23C28.9648 67.9454 35.2194 74.2 42.9348 74.2Z" fill="url(#paint5_linear)"/>
<path d="M54.136 58.5601C55.056 64.7401 50.796 70.5001 44.616 71.4301C38.436 72.3501 32.676 68.09 31.746 61.91C30.826 55.73 35.086 49.97 41.266 49.04C47.446 48.11 53.206 52.3801 54.136 58.5601Z" fill="url(#paint6_linear)"/>
<path d="M54.1364 58.56C53.7464 55.95 52.4864 53.68 50.7064 52C50.7164 52.31 50.7464 52.61 50.7764 52.91C50.9464 54.3 51.2364 55.74 50.8364 57.08C50.4664 58.32 49.4764 59.37 48.2564 59.81C46.5064 60.44 44.4664 59.87 42.7764 60.63C40.7164 61.56 39.8364 64.17 37.7964 65.16C36.8364 65.62 35.7064 65.66 34.6564 65.5C33.9064 65.39 33.1564 65.15 32.5664 64.69C34.5464 69.3 39.4264 72.19 44.6264 71.41C50.7864 70.5 55.0564 64.74 54.1364 58.56Z" fill="url(#paint7_linear)"/>
<g opacity="0.4">
<path opacity="0.4" d="M43.2883 50.8101C43.0483 50.8101 42.8083 50.8201 42.5583 50.8401C42.3083 50.8601 42.0783 50.98 41.9183 51.17C41.7583 51.36 41.6783 51.61 41.6983 51.86C41.7383 52.35 42.1383 52.72 42.6283 52.72H42.7184C42.9084 52.7 43.1083 52.7 43.2983 52.69C43.5483 52.69 43.7884 52.59 43.9684 52.41C44.1484 52.23 44.2383 51.9901 44.2383 51.7401C44.2283 51.2301 43.8083 50.8101 43.2883 50.8101Z" fill="white"/>
<path opacity="0.4" d="M40.1176 51.4901C39.8876 51.3901 39.6276 51.3901 39.3976 51.4801C36.9876 52.4401 35.0676 54.3801 34.1276 56.8001C33.9376 57.2801 34.1776 57.8301 34.6676 58.0201C34.7776 58.0601 34.8876 58.0801 35.0076 58.0801C35.3976 58.0801 35.7476 57.8401 35.8876 57.4801C36.6576 55.5201 38.1476 54.0101 40.0976 53.2301C40.3276 53.1401 40.5176 52.9601 40.6176 52.7301C40.7176 52.5001 40.7176 52.2401 40.6276 52.0101C40.5276 51.7701 40.3576 51.5901 40.1176 51.4901Z" fill="white"/>
</g>
<path d="M42.625 139.43C40.445 139.42 38.675 137.67 38.645 135.49L38.275 108.42C38.225 105.07 38.515 101.73 39.155 98.44L41.745 85.04L44.045 85.05L46.505 98.47C47.105 101.76 47.365 105.11 47.275 108.46L46.645 135.52C46.585 137.7 44.795 139.44 42.625 139.43Z" fill="url(#paint8_linear)"/>
<defs>
<linearGradient id="paint0_linear" x1="42.751" y1="119.599" x2="42.7516" y2="113.542" gradientUnits="userSpaceOnUse">
<stop stop-color="white"/>
<stop offset="0.1721" stop-color="#EDF3FC"/>
<stop offset="0.5393" stop-color="#C8DCF3"/>
<stop offset="0.8278" stop-color="#AFCDED"/>
<stop offset="1" stop-color="#A6C8EB"/>
</linearGradient>
<linearGradient id="paint1_linear" x1="55.2832" y1="105.145" x2="85.5914" y2="105.145" gradientUnits="userSpaceOnUse">
<stop stop-color="#EE7219"/>
<stop offset="0.4032" stop-color="#F49B31"/>
<stop offset="1" stop-color="#FED661"/>
</linearGradient>
<linearGradient id="paint2_linear" x1="-0.0317936" y1="104.955" x2="30.2056" y2="104.957" gradientUnits="userSpaceOnUse">
<stop stop-color="#FED661"/>
<stop offset="0.5968" stop-color="#F49B31"/>
<stop offset="1" stop-color="#EE7219"/>
</linearGradient>
<linearGradient id="paint3_linear" x1="10.5661" y1="32.3718" x2="75.4363" y2="97.242" gradientUnits="userSpaceOnUse">
<stop stop-color="white"/>
<stop offset="0.2019" stop-color="#FCFDFE"/>
<stop offset="0.4022" stop-color="#F2F6FD"/>
<stop offset="0.602" stop-color="#E1EBF9"/>
<stop offset="0.801" stop-color="#C8DCF3"/>
<stop offset="0.9986" stop-color="#A6C8EB"/>
<stop offset="1" stop-color="#A6C8EB"/>
</linearGradient>
<linearGradient id="paint4_linear" x1="29.0465" y1="13.8928" x2="56.92" y2="41.7663" gradientUnits="userSpaceOnUse">
<stop stop-color="#FED661"/>
<stop offset="0.5968" stop-color="#F49B31"/>
<stop offset="1" stop-color="#EE7219"/>
</linearGradient>
<linearGradient id="paint5_linear" x1="33.105" y1="50.2969" x2="52.767" y2="70.1612" gradientUnits="userSpaceOnUse">
<stop stop-color="#FCC613"/>
<stop offset="0.2455" stop-color="#F8B32A"/>
<stop offset="0.5311" stop-color="#F5A035"/>
<stop offset="0.7911" stop-color="#F3943A"/>
<stop offset="1" stop-color="#F3903C"/>
</linearGradient>
<linearGradient id="paint6_linear" x1="34.9335" y1="52.2247" x2="50.9412" y2="68.2333" gradientUnits="userSpaceOnUse">
<stop stop-color="#335AA6"/>
<stop offset="0.3804" stop-color="#3257A4"/>
<stop offset="0.7464" stop-color="#2E509E"/>
<stop offset="1" stop-color="#2A4898"/>
</linearGradient>
<linearGradient id="paint7_linear" x1="39.9836" y1="57.2738" x2="50.9421" y2="68.233" gradientUnits="userSpaceOnUse">
<stop stop-color="#2A4898"/>
<stop offset="0.3868" stop-color="#2C4C9C"/>
<stop offset="0.9419" stop-color="#3358A5"/>
<stop offset="1" stop-color="#335AA6"/>
</linearGradient>
<linearGradient id="paint8_linear" x1="28.5278" y1="98.2563" x2="56.9986" y2="126.727" gradientUnits="userSpaceOnUse">
<stop stop-color="#FED661"/>
<stop offset="0.5968" stop-color="#F49B31"/>
<stop offset="1" stop-color="#EE7219"/>
</linearGradient>
</defs>
</svg>
