<svg width="225" height="203" viewBox="0 0 225 203" fill="none" xmlns="http://www.w3.org/2000/svg">
<g clip-path="url(#clip0)">
<path d="M215.929 80.4687C215.929 115.685 193.337 145.616 161.872 156.525C149.207 160.891 135.657 162.04 122.439 159.868C121.184 159.663 119.939 159.428 118.702 159.162C117.026 158.805 115.371 158.396 113.735 157.932C79.9533 148.413 55.1934 117.336 55.1934 80.4687C55.1934 36.0268 91.1751 0 135.561 0C179.948 0 215.929 36.0268 215.929 80.4687Z" fill="#E6E6E6"/>
<path d="M85.2243 105.305C85.0828 105.381 84.9771 105.51 84.9305 105.663C84.8838 105.817 84.9 105.983 84.9754 106.125L115.192 162.791C115.267 162.933 115.396 163.039 115.55 163.085C115.703 163.132 115.869 163.116 116.011 163.04L158.724 140.207C158.866 140.131 158.971 140.002 159.018 139.849C159.065 139.695 159.049 139.529 158.973 139.387L128.757 82.7208C128.681 82.5791 128.552 82.4733 128.399 82.4266C128.245 82.3799 128.08 82.3961 127.938 82.4716L85.2243 105.305Z" fill="#3F3D56"/>
<path d="M89.1956 106.961L116.847 158.815L154.755 138.551L127.104 86.696L89.1956 106.961ZM86.7935 108.245L86.7989 108.242L86.793 108.245L86.7935 108.245Z" fill="white"/>
<path d="M98.7535 112.662C98.1646 112.977 98.0392 113.896 98.4736 114.71C98.9079 115.525 99.7403 115.932 100.329 115.617L128.093 100.775C128.682 100.46 128.807 99.5414 128.373 98.7268C127.939 97.9123 127.106 97.5053 126.517 97.8201L98.7535 112.662Z" fill="#F53838"/>
<path d="M102.173 119.077C101.584 119.392 101.459 120.311 101.893 121.125C102.328 121.94 103.16 122.347 103.749 122.032L131.513 107.19C132.102 106.875 132.227 105.956 131.793 105.142C131.359 104.327 130.526 103.92 129.937 104.235L102.173 119.077Z" fill="#F53838"/>
<path d="M105.595 125.492C105.006 125.807 104.881 126.726 105.315 127.54C105.75 128.355 106.582 128.762 107.171 128.447L134.935 113.605C135.524 113.29 135.649 112.371 135.215 111.557C134.781 110.742 133.948 110.335 133.359 110.65L105.595 125.492Z" fill="#F53838"/>
<path d="M109.015 131.907C108.426 132.222 108.301 133.141 108.735 133.955C109.17 134.77 110.002 135.177 110.591 134.862L138.355 120.02C138.944 119.706 139.069 118.786 138.635 117.972C138.2 117.157 137.368 116.75 136.779 117.065L109.015 131.907Z" fill="#F53838"/>
<path d="M112.435 138.322C111.846 138.637 111.721 139.556 112.155 140.37C112.59 141.185 113.422 141.592 114.011 141.277L141.775 126.435C142.364 126.121 142.489 125.202 142.055 124.387C141.62 123.572 140.788 123.165 140.199 123.48L112.435 138.322Z" fill="#F53838"/>
<path d="M117.826 80.823L142.983 82.3612L150.029 61.3241L127.963 56.656L117.826 80.823Z" fill="#2F2E41"/>
<path d="M135.97 75.5032C141.527 75.5032 146.031 70.9929 146.031 65.4291C146.031 59.8653 141.527 55.355 135.97 55.355C130.413 55.355 125.908 59.8653 125.908 65.4291C125.908 70.9929 130.413 75.5032 135.97 75.5032Z" fill="#FFB8B8"/>
<path d="M152.318 85.6651L136.007 88.3375L131.707 71.2639L143.125 70.2246L152.318 85.6651Z" fill="#FFB8B8"/>
<path d="M161.807 155.741L161.872 156.525C149.207 160.891 135.657 162.04 122.439 159.868L122.353 161.261C122.305 162.007 122.082 162.732 121.702 163.376C121.323 164.02 120.797 164.565 120.168 164.968C119.539 165.371 118.824 165.62 118.081 165.695C117.338 165.77 116.587 165.669 115.891 165.4L118.702 159.162L122.258 151.266L124.589 146.091L123.749 128.186L123.661 126.333L123.551 123.969L125.069 123.96L135.864 123.895L146.152 123.83L147.721 123.821C157.557 135.936 165.674 145.782 161.807 155.741Z" fill="#2F2E41"/>
<path d="M147.573 123.672L123.552 126.345L122.662 109.717C119.843 102.518 121.704 96.0921 127.555 90.3259L128.744 85.6119C129.056 84.3745 129.702 83.2466 130.609 82.3507C131.517 81.4549 132.653 80.8254 133.893 80.5308C137.825 78.2728 142.279 77.1966 147.277 77.351C149.273 78.1313 150.965 79.5337 152.104 81.3509C153.242 83.1681 153.767 85.3039 153.601 87.4427C152.567 100.511 150.712 112.743 147.573 123.672Z" fill="#F53838"/>
<path d="M140.751 95.7606L140.558 97.2185L137.489 120.406L135.864 123.895L135.333 125.035L122.957 151.584L122.438 159.868L122.352 161.261C122.311 161.954 122.119 162.63 121.789 163.24C121.459 163.851 121 164.382 120.443 164.797C119.887 165.211 119.246 165.498 118.567 165.638C117.888 165.779 117.186 165.768 116.511 165.608C115.837 165.448 115.205 165.142 114.661 164.712C114.116 164.281 113.673 163.737 113.361 163.117C113.049 162.497 112.877 161.816 112.856 161.122C112.835 160.428 112.965 159.737 113.239 159.099L113.734 157.932L116.433 151.584L123.749 128.186L124.351 126.256L125.069 123.96L127.109 117.437L130.36 97.3759L130.668 95.4636L140.751 95.7606Z" fill="#FFB8B8"/>
<path d="M142.531 97.8391C137.87 96.1622 133.399 95.9839 129.186 97.8391L130.561 85.9038C130.51 84.4134 131.046 82.9627 132.053 81.8636C133.059 80.7645 134.457 80.1048 135.944 80.0264C136.691 79.987 137.439 80.0957 138.144 80.3463C138.849 80.5968 139.498 80.9843 140.053 81.4864C140.609 81.9885 141.06 82.5955 141.38 83.2725C141.701 83.9494 141.885 84.6831 141.921 85.4314L142.531 97.8391Z" fill="#F53838"/>
<path d="M128.358 53.5268C128.358 53.5268 123.156 55.4277 123.022 62.3387C123.015 63.5017 123.17 64.66 123.483 65.7799C123.82 67.0501 124.091 69.806 121.822 73.4797C120.34 75.8642 119 78.3345 117.809 80.8775L123.667 81.4434L124.635 71.7204C125.105 67.0065 126.265 62.3874 128.079 58.0119L128.117 57.9206C128.117 57.9206 130.804 62.5974 135.912 62.4533L134.036 60.6783C134.036 60.6783 140.434 63.0905 143.912 63.5748C144.309 63.6301 144.684 63.7929 144.995 64.0455C145.307 64.2981 145.543 64.631 145.68 65.0084C145.816 65.3858 145.847 65.7933 145.77 66.187C145.692 66.5807 145.509 66.9458 145.239 67.2428C145.219 67.2652 145.198 67.2876 145.176 67.3102C143.049 69.5637 138.815 74.8013 141.482 78.7475C144.149 82.6937 141.991 83.8513 141.991 83.8513L145.942 81.5463L147.735 80.399L147.777 81.8602L157.232 80.4968C157.232 80.4968 159.775 80.0594 154.128 74.0038C154.128 74.0038 152.615 71.633 153.189 69.5353C153.664 67.9399 153.753 66.2543 153.449 64.6176C152.03 57.8041 146.837 44.3249 128.358 53.5268Z" fill="#2F2E41"/>
<path d="M135.561 202.258C155.543 202.258 171.742 201.327 171.742 200.179C171.742 199.031 155.543 198.101 135.561 198.101C115.579 198.101 99.3809 199.031 99.3809 200.179C99.3809 201.327 115.579 202.258 135.561 202.258Z" fill="#E6E6E6"/>
<path d="M0.220143 95.7704C0.144185 95.7908 0.0793935 95.8405 0.0399827 95.9086C0.000571938 95.9767 -0.0102359 96.0577 0.00993109 96.1338L8.10313 126.548C8.12345 126.624 8.17307 126.689 8.24111 126.728C8.30915 126.767 8.39004 126.778 8.46604 126.758L31.3912 120.642C31.4671 120.622 31.5319 120.572 31.5713 120.504C31.6107 120.436 31.6216 120.355 31.6014 120.279L23.5082 89.8652C23.4879 89.7891 23.4382 89.7243 23.3702 89.6848C23.3022 89.6453 23.2213 89.6345 23.1453 89.6547L0.220143 95.7704Z" fill="#F2F2F2"/>
<path d="M5.85287 100.793C5.53678 100.878 5.37444 101.302 5.49077 101.739C5.6071 102.176 5.95884 102.464 6.27492 102.379L21.1763 98.4042C21.4923 98.3199 21.6547 97.8955 21.5384 97.4583C21.422 97.0211 21.0703 96.7338 20.7542 96.8182L5.85287 100.793Z" fill="white"/>
<path d="M6.76889 104.236C6.4528 104.321 6.29045 104.745 6.40679 105.182C6.52312 105.619 6.87485 105.907 7.19094 105.822L22.0923 101.847C22.4084 101.763 22.5707 101.338 22.4544 100.901C22.338 100.464 21.9863 100.177 21.6702 100.261L6.76889 104.236Z" fill="white"/>
<path d="M7.68686 107.679C7.37077 107.764 7.20842 108.188 7.32475 108.625C7.44109 109.062 7.79282 109.35 8.10891 109.265L23.0102 105.29C23.3263 105.206 23.4887 104.781 23.3723 104.344C23.256 103.907 22.9043 103.62 22.5882 103.704L7.68686 107.679Z" fill="white"/>
<path d="M8.60287 111.122C8.28679 111.207 8.12444 111.631 8.24077 112.068C8.3571 112.506 8.70884 112.793 9.02492 112.709L23.9263 108.733C24.2423 108.649 24.4047 108.225 24.2884 107.787C24.172 107.35 23.8203 107.063 23.5042 107.147L8.60287 111.122Z" fill="white"/>
<path d="M9.51889 114.566C9.2028 114.65 9.04045 115.074 9.15679 115.512C9.27312 115.949 9.62485 116.236 9.94094 116.152L24.8423 112.176C25.1584 112.092 25.3207 111.668 25.2044 111.231C25.088 110.793 24.7363 110.506 24.4202 110.59L9.51889 114.566Z" fill="white"/>
<path d="M10.4349 118.009C10.1188 118.093 9.95647 118.517 10.0728 118.955C10.1891 119.392 10.5409 119.679 10.8569 119.595L25.7583 115.62C26.0744 115.535 26.2367 115.111 26.1204 114.674C26.0041 114.236 25.6523 113.949 25.3362 114.033L10.4349 118.009Z" fill="white"/>
<path d="M58.8066 202.931C58.8066 202.969 58.9396 203 59.1032 203H90.5387C90.7023 203 90.8352 202.969 90.8352 202.931V197.427C90.8352 197.389 90.7023 197.358 90.5387 197.358H59.1032C58.9396 197.358 58.8066 197.389 58.8066 197.427V202.931Z" fill="#F2F2F2"/>
<path d="M65.1055 201.968C65.1055 202.044 65.4733 202.106 65.9251 202.106C66.377 202.106 66.7448 202.044 66.7448 201.968V198.39C66.7448 198.314 66.377 198.253 65.9251 198.253C65.4733 198.253 65.1055 198.314 65.1055 198.39V201.968Z" fill="white"/>
<path d="M68.6641 201.968C68.6641 202.044 69.0319 202.106 69.4837 202.106C69.9356 202.106 70.3034 202.044 70.3034 201.968V198.39C70.3034 198.314 69.9356 198.253 69.4837 198.253C69.0319 198.253 68.6641 198.314 68.6641 198.39V201.968Z" fill="white"/>
<path d="M72.2227 201.968C72.2227 202.044 72.5905 202.106 73.0423 202.106C73.4942 202.106 73.862 202.044 73.862 201.968V198.39C73.862 198.314 73.4942 198.253 73.0423 198.253C72.5905 198.253 72.2227 198.314 72.2227 198.39V201.968Z" fill="white"/>
<path d="M75.7812 201.968C75.7812 202.044 76.1491 202.106 76.6009 202.106C77.0528 202.106 77.4206 202.044 77.4206 201.968V198.39C77.4206 198.314 77.0528 198.253 76.6009 198.253C76.1491 198.253 75.7812 198.314 75.7812 198.39V201.968Z" fill="white"/>
<path d="M79.3398 201.968C79.3398 202.044 79.7076 202.106 80.1595 202.106C80.6114 202.106 80.9792 202.044 80.9792 201.968V198.39C80.9792 198.314 80.6114 198.253 80.1595 198.253C79.7076 198.253 79.3398 198.314 79.3398 198.39V201.968Z" fill="white"/>
<path d="M82.8984 201.968C82.8984 202.044 83.2662 202.106 83.7181 202.106C84.1699 202.106 84.5378 202.044 84.5378 201.968V198.39C84.5378 198.314 84.1699 198.253 83.7181 198.253C83.2662 198.253 82.8984 198.314 82.8984 198.39V201.968Z" fill="white"/>
<path d="M1.06108 73.8226C0.991755 73.8597 0.939981 73.9229 0.917121 73.9982C0.89426 74.0736 0.902182 74.1549 0.939145 74.2244L15.7445 101.99C15.7816 102.059 15.8447 102.111 15.9199 102.134C15.9952 102.157 16.0764 102.149 16.1458 102.112L37.0746 90.924C37.1439 90.8869 37.1957 90.8237 37.2186 90.7484C37.2414 90.673 37.2335 90.5917 37.1965 90.5222L22.3912 62.7568C22.3541 62.6874 22.291 62.6356 22.2158 62.6127C22.1405 62.5898 22.0593 62.5977 21.9899 62.6347L1.06108 73.8226Z" fill="#E6E6E6"/>
<path d="M3.00734 74.6338L16.5557 100.042L35.1301 90.1126L21.5817 64.7046L3.00734 74.6338ZM1.83037 75.2629L1.83297 75.2616L1.83008 75.2631L1.83037 75.2629Z" fill="white"/>
<path d="M7.68971 77.4273C7.40116 77.5815 7.33972 78.0318 7.55254 78.4309C7.76535 78.83 8.17324 79.0295 8.46179 78.8752L22.0655 71.6031C22.3541 71.4489 22.4155 70.9986 22.2027 70.5995C21.9899 70.2004 21.582 70.001 21.2934 70.1552L7.68971 77.4273Z" fill="#F53838"/>
<path d="M9.3655 80.5704C9.07694 80.7246 9.0155 81.1749 9.22832 81.574C9.44113 81.9731 9.84902 82.1726 10.1376 82.0183L23.7413 74.7462C24.0299 74.592 24.0913 74.1417 23.8785 73.7425C23.6657 73.3434 23.2578 73.144 22.9692 73.2983L9.3655 80.5704Z" fill="#F53838"/>
<path d="M11.0413 83.7137C10.7527 83.8679 10.6913 84.3182 10.9041 84.7173C11.1169 85.1164 11.5248 85.3158 11.8134 85.1616L25.4171 77.8895C25.7056 77.7353 25.7671 77.285 25.5543 76.8859C25.3415 76.4867 24.9336 76.2873 24.645 76.4416L11.0413 83.7137Z" fill="#F53838"/>
<path d="M12.7171 86.857C12.4285 87.0112 12.3671 87.4615 12.5799 87.8607C12.7927 88.2598 13.2006 88.4592 13.4891 88.3049L27.0929 81.0328C27.3814 80.8786 27.4429 80.4283 27.23 80.0292C27.0172 79.6301 26.6093 79.4306 26.3208 79.5849L12.7171 86.857Z" fill="#F53838"/>
<path d="M14.3948 90.0003C14.1062 90.1546 14.0448 90.6049 14.2576 91.004C14.4704 91.4031 14.8783 91.6025 15.1669 91.4482L28.7706 84.1761C29.0592 84.0219 29.1206 83.5716 28.9078 83.1725C28.695 82.7734 28.2871 82.574 27.9985 82.7282L14.3948 90.0003Z" fill="#F53838"/>
<path d="M16.0706 93.1434C15.782 93.2976 15.7206 93.7479 15.9334 94.147C16.1462 94.5462 16.5541 94.7456 16.8427 94.5913L30.4464 87.3192C30.7349 87.1649 30.7964 86.7147 30.5836 86.3155C30.3707 85.9164 29.9629 85.717 29.6743 85.8713L16.0706 93.1434Z" fill="#F53838"/>
<path d="M204.428 144.777C204.361 144.737 204.28 144.725 204.204 144.745C204.128 144.765 204.062 144.814 204.022 144.881L188.029 171.978C187.989 172.046 187.978 172.127 187.998 172.203C188.017 172.28 188.066 172.345 188.134 172.385L208.559 184.47C208.627 184.51 208.707 184.522 208.784 184.502C208.86 184.483 208.925 184.434 208.965 184.366L224.958 157.269C224.998 157.201 225.009 157.12 224.99 157.044C224.97 156.967 224.921 156.902 224.854 156.862L204.428 144.777Z" fill="#E6E6E6"/>
<path d="M204.748 146.862L190.113 171.659L208.24 182.385L222.875 157.588L204.748 146.862ZM203.599 146.183L203.602 146.184L203.599 146.183L203.599 146.183Z" fill="white"/>
<path d="M204.801 152.32C204.519 152.154 204.103 152.335 203.873 152.725C203.643 153.114 203.685 153.567 203.967 153.733L217.243 161.589C217.525 161.755 217.941 161.574 218.171 161.184C218.4 160.795 218.359 160.342 218.077 160.176L204.801 152.32Z" fill="#F53838"/>
<path d="M202.99 155.388C202.708 155.221 202.292 155.403 202.062 155.792C201.833 156.182 201.874 156.634 202.156 156.801L215.432 164.656C215.714 164.823 216.13 164.641 216.36 164.252C216.59 163.862 216.548 163.41 216.266 163.243L202.99 155.388Z" fill="#F53838"/>
<path d="M201.178 158.455C200.896 158.289 200.48 158.47 200.25 158.86C200.02 159.249 200.062 159.702 200.344 159.869L213.62 167.724C213.901 167.891 214.318 167.709 214.547 167.319C214.777 166.93 214.735 166.477 214.454 166.311L201.178 158.455Z" fill="#F53838"/>
<path d="M199.367 161.523C199.085 161.356 198.669 161.538 198.439 161.927C198.209 162.317 198.251 162.77 198.533 162.936L211.809 170.792C212.091 170.958 212.507 170.777 212.737 170.387C212.967 169.998 212.925 169.545 212.643 169.378L199.367 161.523Z" fill="#F53838"/>
<path d="M197.558 164.591C197.277 164.424 196.861 164.606 196.631 164.995C196.401 165.385 196.443 165.837 196.724 166.004L210.001 173.859C210.282 174.026 210.698 173.844 210.928 173.455C211.158 173.065 211.116 172.613 210.835 172.446L197.558 164.591Z" fill="#F53838"/>
<path d="M195.748 167.658C195.466 167.492 195.05 167.673 194.82 168.063C194.59 168.452 194.632 168.905 194.914 169.071L208.19 176.927C208.472 177.093 208.888 176.912 209.118 176.522C209.348 176.133 209.306 175.68 209.024 175.514L195.748 167.658Z" fill="#F53838"/>
</g>
<defs>
<clipPath id="clip0">
<rect width="225" height="203" fill="white"/>
</clipPath>
</defs>
</svg>
