<svg width="44" height="44" viewBox="0 0 44 44" fill="none" xmlns="http://www.w3.org/2000/svg">
<g clip-path="url(#clip0)">
<path d="M25.322 1.11821C25.1045 0.941518 24.8182 0.873971 24.5447 0.934901L0.711431 6.4349C0.29197 6.53132 -0.00399822 6.90653 4.0838e-05 7.3369V38.5036C0.000212713 38.9559 0.330299 39.3405 0.777346 39.4093L24.6107 43.076C25.1111 43.1529 25.5791 42.8097 25.656 42.3093C25.663 42.2634 25.6667 42.2169 25.6667 42.1704V1.8369C25.6675 1.55735 25.5406 1.29274 25.322 1.11821Z" fill="#4CAF50"/>
<path d="M43.0836 39.4205H24.7502C24.2439 39.4205 23.8335 39.01 23.8335 38.5038C23.8335 37.9975 24.2439 37.5871 24.7502 37.5871H42.1669V6.42046H24.7502C24.2439 6.42046 23.8335 6.01003 23.8335 5.50377C23.8335 4.99751 24.2439 4.58716 24.7502 4.58716H43.0835C43.5898 4.58716 44.0002 4.9976 44.0002 5.50385V38.5039C44.0002 39.0101 43.5898 39.4205 43.0836 39.4205Z" fill="#4CAF50"/>
<path d="M17.4166 30.2541C17.1005 30.2541 16.8068 30.0913 16.6393 29.8233L7.47258 15.1566C7.19079 14.736 7.30337 14.1666 7.72395 13.8848C8.14453 13.603 8.71395 13.7156 8.99574 14.1362C9.00683 14.1527 9.01731 14.1695 9.02728 14.1867L18.194 28.8534C18.4612 29.2834 18.3294 29.8486 17.8995 30.1159C17.7545 30.206 17.5873 30.2538 17.4166 30.2541Z" fill="#FAFAFA"/>
<path d="M8.24928 30.2537C7.74302 30.2526 7.33344 29.8414 7.33447 29.3352C7.33482 29.164 7.38311 28.9963 7.47378 28.8512L16.6405 14.1845C16.8943 13.7464 17.4552 13.5972 17.8932 13.851C18.3312 14.1049 18.4805 14.6658 18.2266 15.1037C18.2167 15.1209 18.2062 15.1378 18.1951 15.1543L9.02847 29.821C8.86107 30.0902 8.56639 30.2539 8.24928 30.2537Z" fill="#FAFAFA"/>
<path d="M32.0837 39.4205C31.5774 39.4205 31.167 39.0101 31.167 38.5039V5.50385C31.167 4.9976 31.5774 4.58716 32.0837 4.58716C32.5899 4.58716 33.0004 4.9976 33.0004 5.50385V38.5039C33.0003 39.0102 32.5899 39.4205 32.0837 39.4205Z" fill="#4CAF50"/>
<path d="M43.0836 33.9205H24.7502C24.2439 33.9205 23.8335 33.5101 23.8335 33.0039C23.8335 32.4976 24.2439 32.0872 24.7502 32.0872H43.0835C43.5898 32.0872 44.0002 32.4976 44.0002 33.0039C44.0002 33.5102 43.5898 33.9205 43.0836 33.9205Z" fill="#4CAF50"/>
<path d="M43.0836 28.4205H24.7502C24.2439 28.4205 23.8335 28.0101 23.8335 27.5039C23.8335 26.9976 24.2439 26.5872 24.7502 26.5872H43.0835C43.5898 26.5872 44.0002 26.9976 44.0002 27.5039C44.0002 28.0102 43.5898 28.4205 43.0836 28.4205Z" fill="#4CAF50"/>
<path d="M43.0836 22.9205H24.7502C24.2439 22.9205 23.8335 22.5101 23.8335 22.0039C23.8335 21.4976 24.2439 21.0872 24.7502 21.0872H43.0835C43.5898 21.0872 44.0002 21.4976 44.0002 22.0039C44.0002 22.5102 43.5898 22.9205 43.0836 22.9205Z" fill="#4CAF50"/>
<path d="M43.0836 17.4205H24.7502C24.2439 17.4205 23.8335 17.0101 23.8335 16.5039C23.8335 15.9976 24.2439 15.5872 24.7502 15.5872H43.0835C43.5898 15.5872 44.0002 15.9976 44.0002 16.5039C44.0002 17.0101 43.5898 17.4205 43.0836 17.4205Z" fill="#4CAF50"/>
<path d="M43.0836 11.9205H24.7502C24.2439 11.9205 23.8335 11.5101 23.8335 11.0039C23.8335 10.4976 24.2439 10.0872 24.7502 10.0872H43.0835C43.5898 10.0872 44.0002 10.4976 44.0002 11.0039C44.0002 11.5102 43.5898 11.9205 43.0836 11.9205Z" fill="#4CAF50"/>
</g>
<defs>
<clipPath id="clip0">
<rect width="44" height="44" fill="white"/>
</clipPath>
</defs>
</svg>
