<svg width="44" height="44" viewBox="0 0 44 44" fill="none" xmlns="http://www.w3.org/2000/svg">
<path d="M5.74997 0H29.1153L41.4999 12.3365V41.25C41.4999 42.7693 40.268 44 38.7499 44H5.74997C4.23193 44 3 42.7693 3 41.25V2.74997C3 1.23065 4.23207 0 5.74997 0Z" fill="#E2F3FF"/>
<rect x="10" y="16" width="24" height="24" rx="4" fill="#45A7DE"/>
<path d="M17.9126 28.168L19.6006 31H17.8246L17.0246 29.656L16.2166 31H14.4406L16.1366 28.168L14.4806 25.4H16.2566L17.0246 26.68L17.7846 25.4H19.5606L17.9126 28.168ZM24.4369 25.4H26.0369V31H24.4369V28.272L23.1889 30.368H23.0449L21.7969 28.272V31H20.1969V25.4H21.7969L23.1169 27.68L24.4369 25.4ZM28.6375 25.4V29.448H30.4775V31H27.0375V25.4H28.6375Z" fill="white"/>
<path d="M41.2101 12.3748H31.625C30.1069 12.3748 28.875 11.1429 28.875 9.62487V0.0273438L41.2101 12.3748Z" fill="#45A7DE"/>
</svg>
