<svg width="60" height="60" viewBox="0 0 60 60" fill="none" xmlns="http://www.w3.org/2000/svg">
<circle cx="30" cy="30" r="30" fill="#8F92A1" fill-opacity="0.05"/>
<g clip-path="url(#clip0)">
<path d="M46.0002 39.6492L35.8726 33.2676V36.0359H30.0002L29.333 39.3892L30.0002 43.2625H35.8726V46.0308L46.0002 39.6492Z" fill="#0BD5DD"/>
<path d="M27.8374 36.0359L21.7842 30.1506V36.9744C21.7842 40.4417 24.605 43.2625 28.0723 43.2625H30.0005V36.0359H27.8374Z" fill="#0BD5DD"/>
<path d="M31.928 16.8308H29.9998L28.665 20.0369L29.9998 24.0574H32.1628L38.2161 29.9426V23.1189C38.2161 19.6516 35.3953 16.8308 31.928 16.8308Z" fill="#52E161"/>
<path d="M24.1279 16.8308V14.0625L14 20.4441L24.1279 26.8254V24.0574H30V16.8308H24.1279Z" fill="#52E161"/>
<path d="M30.0002 21.8406L29.333 30.2446L30.0002 38.2527C34.5322 38.2527 38.2063 34.5786 38.2063 30.0466C38.2063 25.5146 34.5322 21.8406 30.0002 21.8406Z" fill="#FDA102"/>
<path d="M21.7939 30.0466C21.7939 34.5786 25.4678 38.2527 29.9998 38.2527V21.8406C25.4678 21.8406 21.7939 25.5146 21.7939 30.0466Z" fill="#FDA102"/>
<path d="M26.5119 27.6532C26.4246 27.6532 26.3492 27.6212 26.2857 27.5573C26.2222 27.4933 26.1904 27.4174 26.1904 27.3295V26.5142C26.1904 26.4262 26.2222 26.3503 26.2857 26.2863C26.3492 26.2224 26.4246 26.1904 26.5119 26.1904H33.488C33.5754 26.1904 33.6507 26.2224 33.7142 26.2863C33.7777 26.3503 33.8095 26.4262 33.8095 26.5142V27.3295C33.8095 27.4174 33.7777 27.4933 33.7142 27.5573C33.6507 27.6212 33.5754 27.6532 33.488 27.6532H26.5119ZM28.8095 34.5714C28.7222 34.5714 28.6468 34.5394 28.5833 34.4755C28.5198 34.4115 28.488 34.3356 28.488 34.2477V30.3509H26.5119C26.4246 30.3509 26.3492 30.319 26.2857 30.255C26.2222 30.1911 26.1904 30.1151 26.1904 30.0272V28.6963C26.1904 28.6084 26.2222 28.5325 26.2857 28.4685C26.3492 28.4046 26.4246 28.3726 26.5119 28.3726H33.488C33.5754 28.3726 33.6507 28.4046 33.7142 28.4685C33.7777 28.5325 33.8095 28.6084 33.8095 28.6963V30.0272C33.8095 30.1151 33.7777 30.1911 33.7142 30.255C33.6507 30.319 33.5754 30.3509 33.488 30.3509H31.5119V34.2477C31.5119 34.3356 31.4801 34.4115 31.4166 34.4755C31.3531 34.5394 31.2777 34.5714 31.1904 34.5714H28.8095Z" fill="#AB561D"/>
<path d="M30.0002 20.9021L29.333 21.5696L30.0002 22.7791C34.0076 22.7791 37.2678 26.0393 37.2678 30.0466C37.2678 34.054 34.0076 37.3142 30.0002 37.3142L29.333 38.2527L30.0002 39.1909C35.0425 39.1909 39.1445 35.0889 39.1445 30.0466C39.1445 25.0044 35.0425 20.9021 30.0002 20.9021Z" fill="#FDCB02"/>
<path d="M22.7322 30.0466C22.7322 26.0393 25.9924 22.7791 29.9998 22.7791V20.9021C24.9575 20.9021 20.8555 25.0044 20.8555 30.0466C20.8555 35.0889 24.9575 39.1909 29.9998 39.1909V37.3142C25.9924 37.3142 22.7322 34.054 22.7322 30.0466Z" fill="#FDCB02"/>
</g>
<defs>
<clipPath id="clip0">
<rect width="32" height="32" fill="white" transform="translate(14 14)"/>
</clipPath>
</defs>
</svg>
