<svg width="20" height="20" viewBox="0 0 20 20" fill="none" xmlns="http://www.w3.org/2000/svg">
<path fill-rule="evenodd" clip-rule="evenodd" d="M0 10C0 4.47715 4.47715 0 10 0C15.5228 0 20 4.47715 20 10C20 15.5228 15.5228 20 10 20C4.47715 20 0 15.5228 0 10ZM10 18C5.58172 18 2 14.4183 2 10C2 5.58172 5.58172 2 10 2C14.4183 2 18 5.58172 18 10C18 14.4183 14.4183 18 10 18ZM10 4.05115C9.4477 4.05115 9 4.49886 9 5.05115C9 5.60343 9.4477 6.05115 10 6.05115C10.5523 6.05115 11 5.60343 11 5.05115C11 4.49886 10.5523 4.05115 10 4.05115ZM9 8.9794C9 8.4271 9.4477 7.97937 10 7.97937C10.5523 7.97937 11 8.4271 11 8.9794V14.9794C11 15.5317 10.5523 15.9794 10 15.9794C9.4477 15.9794 9 15.5317 9 14.9794V8.9794Z" fill="#FF991F"/>
</svg>
