<svg width="16" height="16" viewBox="0 0 16 16" fill="none" xmlns="http://www.w3.org/2000/svg">
<path fill-rule="evenodd" clip-rule="evenodd" d="M13.9987 8.00389C13.6305 8.00389 13.332 8.30236 13.332 8.67055V12.6706C13.332 13.0387 13.0336 13.3372 12.6654 13.3372H3.33203C2.96384 13.3372 2.66536 13.0387 2.66536 12.6706V3.33722C2.66536 2.96903 2.96384 2.67055 3.33203 2.67055H7.33203C7.70022 2.67055 7.9987 2.37208 7.9987 2.00389C7.9987 1.6357 7.70022 1.33722 7.33203 1.33722H3.33203C2.22746 1.33722 1.33203 2.23265 1.33203 3.33722V12.6706C1.33203 13.7751 2.22746 14.6706 3.33203 14.6706H12.6654C13.7699 14.6706 14.6654 13.7751 14.6654 12.6706V8.67055C14.6654 8.30236 14.3669 8.00389 13.9987 8.00389ZM3.9987 8.51057V11.3372C3.9987 11.7054 4.29718 12.0039 4.66537 12.0039H7.49204C7.66924 12.0049 7.83956 11.9354 7.96537 11.8106L12.5787 7.19057L14.472 5.33724C14.5982 5.21206 14.6692 5.04166 14.6692 4.86391C14.6692 4.68615 14.5982 4.51575 14.472 4.39057L11.6454 1.53057C11.5202 1.40436 11.3498 1.33337 11.172 1.33337C10.9943 1.33337 10.8239 1.40436 10.6987 1.53057L8.8187 3.41724L4.19204 8.03724C4.06725 8.16305 3.99768 8.33337 3.9987 8.51057ZM11.172 2.94392L13.0587 4.83058L12.112 5.77725L10.2254 3.89058L11.172 2.94392ZM5.33203 8.78389L9.28536 4.83056L11.172 6.71722L7.2187 10.6706H5.33203V8.78389Z" fill="white"/>
</svg>
