<svg width="16" height="16" viewBox="0 0 16 16" fill="none" xmlns="http://www.w3.org/2000/svg">
<path fill-rule="evenodd" clip-rule="evenodd" d="M13.9997 8.0045C13.6315 8.0045 13.333 8.30297 13.333 8.67116V12.6712C13.333 13.0394 13.0345 13.3378 12.6663 13.3378H3.33301C2.96482 13.3378 2.66634 13.0394 2.66634 12.6712V3.33783C2.66634 2.96964 2.96482 2.67116 3.33301 2.67116H7.33301C7.7012 2.67116 7.99967 2.37269 7.99967 2.0045C7.99967 1.63631 7.7012 1.33783 7.33301 1.33783H3.33301C2.22844 1.33783 1.33301 2.23326 1.33301 3.33783V12.6712C1.33301 13.7757 2.22844 14.6712 3.33301 14.6712H12.6663C13.7709 14.6712 14.6663 13.7757 14.6663 12.6712V8.67116C14.6663 8.30297 14.3679 8.0045 13.9997 8.0045ZM3.99968 8.51118V11.3379C3.99968 11.706 4.29816 12.0045 4.66635 12.0045H7.49301C7.67022 12.0055 7.84053 11.936 7.96635 11.8112L12.5797 7.19118L14.473 5.33785C14.5992 5.21267 14.6702 5.04227 14.6702 4.86452C14.6702 4.68676 14.5992 4.51636 14.473 4.39118L11.6463 1.53118C11.5212 1.40497 11.3508 1.33398 11.173 1.33398C10.9953 1.33398 10.8249 1.40497 10.6997 1.53118L8.81968 3.41785L4.19301 8.03785C4.06822 8.16366 3.99865 8.33398 3.99968 8.51118ZM11.173 2.94453L13.0597 4.83119L12.113 5.77786L10.2263 3.89119L11.173 2.94453ZM5.33301 8.7845L9.28634 4.83117L11.173 6.71783L7.21967 10.6712H5.33301V8.7845Z" fill="#171717"/>
</svg>
