<svg width="24" height="24" viewBox="0 0 24 24" fill="none" xmlns="http://www.w3.org/2000/svg">
<path fill-rule="evenodd" clip-rule="evenodd" d="M10.6089 5.27275C9.96424 3.92834 8.59055 3 7 3C4.79086 3 3 4.79086 3 7C3 9.20914 4.79086 11 7 11C8.59055 11 9.96424 10.0717 10.6089 8.72725C10.8062 8.31582 11.1929 8 11.6492 8H18C18.5523 8 19 7.55228 19 7C19 6.44772 18.5523 6 18 6H11.6492C11.1929 6 10.8062 5.68418 10.6089 5.27275ZM9 7C9 8.10457 8.10457 9 7 9C5.89543 9 5 8.10457 5 7C5 5.89543 5.89543 5 7 5C8.10457 5 9 5.89543 9 7ZM13.3911 17.7272C14.0358 19.0716 15.4095 20 17 20C19.2091 20 21 18.2091 21 16C21 13.7909 19.2091 12 17 12C15.4095 12 14.0358 12.9284 13.3911 14.2728C13.1938 14.6842 12.8071 15 12.3508 15H6C5.44772 15 5 15.4477 5 16C5 16.5523 5.44771 17 6 17H12.3508C12.8071 17 13.1938 17.3158 13.3911 17.7272ZM19 16C19 17.1046 18.1046 18 17 18C15.8954 18 15 17.1046 15 16C15 14.8954 15.8954 14 17 14C18.1046 14 19 14.8954 19 16Z" fill="#8F92A1" fill-opacity="0.4"/>
</svg>
