<svg width="44" height="44" viewBox="0 0 44 44" fill="none" xmlns="http://www.w3.org/2000/svg">
<path d="M5.74997 0H29.1153L41.4999 12.3365V41.25C41.4999 42.7693 40.268 44 38.7499 44H5.74997C4.23193 44 3 42.7693 3 41.25V2.74997C3 1.23065 4.23207 0 5.74997 0Z" fill="#FFF0E2"/>
<rect x="10" y="16" width="24" height="24" rx="4" fill="#FF7A00"/>
<path d="M18.5803 27.696H21.4283V28.36C21.4283 29.1653 21.1697 29.8267 20.6523 30.344C20.1403 30.8667 19.4657 31.128 18.6283 31.128C17.7537 31.128 17.039 30.8507 16.4843 30.296C15.9297 29.7307 15.6523 29.0347 15.6523 28.208C15.6523 27.3813 15.9297 26.6853 16.4843 26.12C17.0337 25.5547 17.727 25.272 18.5643 25.272C19.0817 25.272 19.5563 25.3893 19.9883 25.624C20.4257 25.8533 20.7723 26.1707 21.0283 26.576L19.6683 27.352C19.4443 27.0107 19.087 26.84 18.5963 26.84C18.1963 26.84 17.871 26.968 17.6203 27.224C17.375 27.4747 17.2523 27.8053 17.2523 28.216C17.2523 28.6053 17.367 28.9413 17.5963 29.224C17.831 29.5067 18.1857 29.648 18.6603 29.648C19.215 29.648 19.5857 29.4507 19.7723 29.056H18.5803V27.696ZM22.232 31V25.4H23.832V31H22.232ZM28.3105 25.4V26.952H26.4305V27.68H28.2705V29.232H26.4305V31H24.8305V25.4H28.3105Z" fill="white"/>
<path d="M41.2101 12.3748H31.625C30.1069 12.3748 28.875 11.1429 28.875 9.62487V0.0273438L41.2101 12.3748Z" fill="#FF7A00"/>
</svg>
