<svg width="158" height="40" viewBox="0 0 158 40" fill="none" xmlns="http://www.w3.org/2000/svg">
<g clip-path="url(#clip0)">
<path d="M60.9092 27.0826C54.6245 27.0826 52.2742 24.5073 52.2742 20.0994H56.2325C56.2325 22.7744 57.5692 23.6167 61.0431 23.6167C63.5928 23.6167 64.4346 23.0219 64.4346 22.0798C64.4346 20.818 62.3043 20.2472 59.7579 19.3808C56.0539 18.143 53.0645 17.1528 53.0645 13.7351C53.0645 10.7644 55.4182 9.14844 59.9196 9.14844C65.2626 9.14844 67.6645 11.8544 67.6645 15.3374H63.7062C63.7062 13.209 62.0706 12.6142 59.9264 12.6142C58.1464 12.6142 57.0332 13.0096 57.0332 13.9036C57.0332 14.6944 57.4525 14.9901 60.2495 15.9322C63.4657 17.0221 68.3895 18.4078 68.3895 22.0489C68.3826 25.0266 66.2798 27.0826 60.9092 27.0826Z" fill="#0B132A"/>
<path d="M76.4473 14.0823C79.8593 14.0823 82.9757 15.939 83.151 19.5045H79.1927C79.0449 18.3905 78.0313 17.5481 76.4437 17.5481C74.5609 17.5481 73.5713 18.6621 73.5713 20.5703C73.5713 22.4786 74.5609 23.6167 76.4437 23.6167C78.028 23.6167 79.0416 22.7743 79.1927 21.6603H83.151C82.9793 25.2224 79.8593 27.0824 76.4473 27.0824C72.4614 27.0824 69.6162 24.7548 69.6162 20.5703C69.6162 16.3859 72.4614 14.0823 76.4473 14.0823Z" fill="#0B132A"/>
<path d="M89.384 19.4804L93.3183 18.9371C93.3183 17.9057 92.528 17.3005 90.8202 17.3005C89.2362 17.3005 88.3463 17.971 88.3463 19.1091H84.6353C84.6353 15.939 87.3327 14.0823 90.8202 14.0823C94.308 14.0823 97.287 15.743 97.287 19.8517V23.3657H99.0943V26.8348H96.3454C95.1567 26.8348 94.4901 26.1645 94.4901 24.9781V24.7306L95.1085 23.2453H94.1188C93.6482 25.3083 92.4353 27.0824 88.9475 27.0824C85.0614 27.0824 84.3948 24.7031 84.3948 23.4172C84.388 21.2614 85.6729 19.9996 89.384 19.4804ZM89.707 23.6064C91.8854 23.6064 93.3183 22.6883 93.3183 21.1548L90.1261 21.5984C88.9407 21.7737 88.3463 21.9422 88.3463 22.6643C88.3463 23.3863 89.0405 23.6167 89.707 23.6167V23.6064Z" fill="#0B132A"/>
<path d="M100.07 23.3658H103.537V11.9541L100.565 12.1019V8.6361L105.341 8.4642C106.716 8.41262 107.496 9.15185 107.496 10.5444V23.3658H110.959V26.8351H100.07V23.3658Z" fill="#0B132A"/>
<path d="M118.282 14.0823C122.164 14.0823 124.886 16.3859 124.886 20.1749V21.4127H115.413C115.413 22.8465 116.443 23.8607 118.701 23.8607C120.075 23.8607 121.127 23.3657 121.374 22.427H125.333C125.085 24.232 123.03 27.0824 118.701 27.0824C113.89 27.0824 111.698 23.9605 111.698 20.4225C111.698 16.4581 114.395 14.0823 118.282 14.0823ZM121.175 19.1847C121.175 18.2426 120.488 17.3005 118.282 17.3005C116.076 17.3005 115.413 18.2426 115.413 19.1847H121.175Z" fill="#0B132A"/>
<path d="M136.909 18.9612V14.3298H140.871V26.8348H136.909V25.3082L137.651 23.0803H136.661C136.167 25.3082 134.6 27.0687 131.937 27.0687C128.745 27.0687 126.817 24.9369 126.817 21.0758V14.3298H130.775V20.4706C130.775 22.7468 131.442 23.6167 133.349 23.6167C135.5 23.6167 136.909 22.4751 136.909 18.9612Z" fill="#0B132A"/>
<path d="M146.805 14.3298V15.0966L146.08 17.328H147.069C147.715 15.6673 148.901 14.0823 151.993 14.0823C155.608 14.0823 157.412 17.053 157.412 20.5944C157.412 24.1358 155.608 27.0824 151.993 27.0824C148.901 27.0824 147.715 25.4974 147.069 23.8367H146.08L146.822 26.0647V31.5386H142.846V14.3298H146.805ZM150.12 23.6132C152.247 23.6132 153.436 22.7193 153.436 20.591C153.436 18.4627 152.247 17.5446 150.12 17.5446C147.993 17.5446 146.805 18.4627 146.805 20.591C146.805 22.7193 147.993 23.6167 150.12 23.6167V23.6132Z" fill="#0B132A"/>
<path d="M19.9867 13.07C21.3566 13.0698 22.6959 13.4761 23.8349 14.2375C24.9742 14.999 25.8622 16.0814 26.3865 17.3478C26.9109 18.6142 27.0481 20.0078 26.7808 21.3523C26.5137 22.6968 25.854 23.9318 24.8853 24.9012C23.9166 25.8704 22.6824 26.5306 21.3388 26.7979C19.9951 27.0652 18.6024 26.928 17.3368 26.4033C16.0712 25.8786 14.9895 24.9901 14.2285 23.8501C13.4676 22.7103 13.0615 21.3702 13.0618 19.9994C13.0639 18.1622 13.7942 16.401 15.0924 15.102C16.3906 13.8029 18.1507 13.0722 19.9867 13.07ZM19.9867 9.59192C17.9293 9.59192 15.9181 10.2024 14.2075 11.3462C12.4969 12.4899 11.1637 14.1156 10.3764 16.0176C9.58913 17.9196 9.38323 20.0125 9.78468 22.0316C10.1861 24.0506 11.1769 25.9054 12.6318 27.361C14.0866 28.8165 15.9402 29.8078 17.9581 30.2092C19.9759 30.6108 22.0674 30.4045 23.9681 29.6165C25.8688 28.8285 27.4933 27.4941 28.6361 25.7824C29.7789 24.0706 30.3888 22.058 30.3886 19.9994C30.3886 18.6325 30.1196 17.2791 29.5968 16.0163C29.074 14.7536 28.3079 13.6062 27.342 12.6398C26.3759 11.6734 25.2293 10.9068 23.9672 10.3838C22.7052 9.86086 21.3526 9.59178 19.9867 9.59192Z" fill="#FF494D"/>
<path d="M19.9866 3.47812C29.0938 3.47812 36.4985 10.89 36.4985 19.9994C36.4985 29.1089 29.0914 36.5219 19.9866 36.5219C10.8818 36.5219 3.47583 29.1101 3.47583 19.9994C3.47583 10.8888 10.883 3.47812 19.9866 3.47812ZM19.9866 3.41289e-08C16.0333 4.08779e-08 12.1688 1.17304 8.88183 3.3708C5.59484 5.56854 3.03296 8.69228 1.52016 12.347C0.00736259 16.0017 -0.388394 20.0232 0.382933 23.9031C1.15426 27.7828 3.05802 31.3466 5.85348 34.1435C8.64894 36.9407 12.2105 38.8454 16.0879 39.6169C19.9652 40.3887 23.9841 39.9925 27.6363 38.4783C31.2886 36.9645 34.4102 34.4007 36.6065 31.1115C38.8025 27.8223 39.9745 23.9553 39.9742 19.9994C39.9742 17.373 39.4573 14.7722 38.4528 12.3457C37.4483 9.9192 35.9761 7.71442 34.1199 5.85729C32.2639 4.00014 30.0606 2.52703 27.6354 1.52203C25.2105 0.517033 22.6113 -0.000153399 19.9866 3.41289e-08Z" fill="#FF494D"/>
</g>
<defs>
<clipPath id="clip0">
<rect width="157.412" height="40" fill="white"/>
</clipPath>
</defs>
</svg>
