<svg width="60" height="61" viewBox="0 0 60 61" fill="none" xmlns="http://www.w3.org/2000/svg">
<rect opacity="0.08" y="0.0400391" width="60" height="60" rx="16" fill="#FF494D"/>
<path fill-rule="evenodd" clip-rule="evenodd" d="M38.4091 22.1053C40.1842 24.2636 41.25 27.0273 41.25 30.04C41.25 36.9436 35.6536 42.54 28.75 42.54C21.8464 42.54 16.25 36.9436 16.25 30.04C16.25 23.1364 21.8464 17.54 28.75 17.54C31.7405 17.54 34.4857 18.5902 36.637 20.3418L37.3256 19.6533L37.6528 17.9103C37.7802 17.2318 38.4335 16.7851 39.112 16.9124C39.7905 17.0398 40.2372 17.6931 40.1099 18.3716L40.0385 18.7515L40.4184 18.6802C41.0969 18.5528 41.7502 18.9996 41.8776 19.6781C42.005 20.3566 41.5582 21.0099 40.8797 21.1373L39.0298 21.4846L38.4091 22.1053ZM34.8576 22.1213C33.1682 20.8164 31.0498 20.04 28.75 20.04C23.2272 20.04 18.75 24.5172 18.75 30.04C18.75 35.5629 23.2272 40.04 28.75 40.04C34.2728 40.04 38.75 35.5629 38.75 30.04C38.75 27.718 37.9586 25.5809 36.6308 23.8836L34.8453 25.6691C35.7294 26.8997 36.25 28.4091 36.25 30.04C36.25 34.1822 32.8921 37.54 28.75 37.54C24.6079 37.54 21.25 34.1822 21.25 30.04C21.25 25.8979 24.6079 22.54 28.75 22.54C30.3586 22.54 31.849 23.0465 33.0703 23.9086L34.8576 22.1213ZM31.2626 25.7163C30.5243 25.2863 29.6659 25.04 28.75 25.04C25.9886 25.04 23.75 27.2786 23.75 30.04C23.75 32.8015 25.9886 35.04 28.75 35.04C31.5114 35.04 33.75 32.8015 33.75 30.04C33.75 29.1015 33.4914 28.2233 33.0415 27.4729L31.156 29.3585C31.2172 29.5751 31.25 29.8038 31.25 30.04C31.25 31.4207 30.1307 32.54 28.75 32.54C27.3693 32.54 26.25 31.4207 26.25 30.04C26.25 28.6593 27.3693 27.54 28.75 27.54C28.9615 27.54 29.1669 27.5663 29.3631 27.6158L31.2626 25.7163Z" fill="#FF494D"/>
</svg>
