<svg width="60" height="61" viewBox="0 0 60 61" fill="none" xmlns="http://www.w3.org/2000/svg">
<rect opacity="0.08" y="0.0400391" width="60" height="60" rx="16" fill="#FF494D"/>
<path fill-rule="evenodd" clip-rule="evenodd" d="M16 21.25C16 19.1789 17.6789 17.5 19.75 17.5H39.75C41.8211 17.5 43.5 19.1789 43.5 21.25V38.75C43.5 40.8211 41.8211 42.5 39.75 42.5H19.75C17.6789 42.5 16 40.8211 16 38.75V21.25ZM19.75 20H39.75C40.4403 20 41 20.5596 41 21.25V25H18.5V21.25C18.5 20.5596 19.0596 20 19.75 20ZM18.5 27.5V38.75C18.5 39.4404 19.0596 40 19.75 40H39.75C40.4403 40 41 39.4404 41 38.75V27.5H18.5ZM26 31.25C26 30.5596 26.5596 30 27.25 30H32.25C32.9403 30 33.5 30.5596 33.5 31.25C33.5 31.9404 32.9403 32.5 32.25 32.5H27.25C26.5596 32.5 26 31.9404 26 31.25Z" fill="#FF494D"/>
</svg>
