<svg width="60" height="61" viewBox="0 0 60 61" fill="none" xmlns="http://www.w3.org/2000/svg">
<rect opacity="0.08" y="0.0400391" width="60" height="60" rx="16" fill="#FF494D"/>
<path fill-rule="evenodd" clip-rule="evenodd" d="M28.5 38.75V42.5H31V38.75H32.25C35.0114 38.75 37.25 36.5114 37.25 33.75C37.25 30.9886 35.0114 28.75 32.25 28.75H31V23.75H33.5V26.25H36V21.25H31V17.5H28.5V21.25H27.25C24.4886 21.25 22.25 23.4886 22.25 26.25C22.25 29.0114 24.4886 31.25 27.25 31.25H28.5V36.25H26V33.75H23.5V38.75H28.5ZM31 36.25H32.25C33.6307 36.25 34.75 35.1308 34.75 33.75C34.75 32.3693 33.6307 31.25 32.25 31.25H31V36.25ZM28.5 28.75V23.75H27.25C25.8693 23.75 24.75 24.8693 24.75 26.25C24.75 27.6307 25.8693 28.75 27.25 28.75H28.5Z" fill="#FF494D"/>
</svg>
