<svg width="24" height="24" viewBox="0 0 24 24" fill="none" xmlns="http://www.w3.org/2000/svg">
<path d="M7.71844 4.26562C3.46252 4.26562 0 7.72778 0 11.9833C0 16.2389 3.46252 19.701 7.71844 19.701C11.9744 19.701 15.4369 16.2389 15.4369 11.9833C15.4369 7.72778 11.9744 4.26562 7.71844 4.26562Z" fill="#FFBC4F"/>
<path d="M16.2809 4.26562C12.025 4.26562 8.5625 7.72778 8.5625 11.9833C8.5625 16.2389 12.025 19.701 16.2809 19.701C20.5369 19.701 23.9994 16.2389 23.9994 11.9833C23.9994 7.72778 20.5369 4.26562 16.2809 4.26562Z" fill="#FF7D4F"/>
<path d="M11.5687 14.5161C11.5687 14.1277 11.254 13.813 10.8656 13.813H8.78223C8.90143 14.3015 9.06714 14.7719 9.2746 15.2192H10.8656C11.254 15.2192 11.5687 14.9045 11.5687 14.5161Z" fill="#FFBC4F"/>
<path d="M11.5693 9.93994C11.5693 9.55176 11.2545 9.23682 10.8661 9.23682H9.0686C8.89648 9.68707 8.7652 10.1573 8.67969 10.6431H10.8661C11.2545 10.6431 11.5693 10.3283 11.5693 9.93994Z" fill="#FFBC4F"/>
<path d="M13.5031 12.228C13.5031 11.8397 13.1881 11.5249 12.7999 11.5249H8.57642C8.56744 11.6767 8.5625 11.8294 8.5625 11.9834C8.5625 12.3042 8.58246 12.6204 8.62073 12.9312H12.7999C13.1881 12.9312 13.5031 12.6164 13.5031 12.228Z" fill="#FFBC4F"/>
</svg>
