<svg width="34" height="34" viewBox="0 0 34 34" fill="none" xmlns="http://www.w3.org/2000/svg">
<path d="M16.9864 11.4478C18.084 11.4476 19.157 11.7732 20.0697 12.3832C20.9825 12.9933 21.6939 13.8605 22.1139 14.8752C22.5342 15.8898 22.6441 17.0064 22.4299 18.0836C22.2159 19.1608 21.6873 20.1503 20.9112 20.927C20.1351 21.7035 19.1463 22.2325 18.0697 22.4466C16.9932 22.6608 15.8774 22.5509 14.8633 22.1305C13.8493 21.7101 12.9827 20.9982 12.373 20.0849C11.7633 19.1716 11.438 18.0979 11.4382 16.9996C11.4399 15.5277 12.025 14.1166 13.0651 13.0758C14.1053 12.035 15.5155 11.4495 16.9864 11.4478ZM16.9864 8.66113C15.3381 8.66113 13.7267 9.15026 12.3562 10.0667C10.9856 10.983 9.91741 12.2855 9.28664 13.8094C8.65588 15.3333 8.49091 17.0101 8.81256 18.6278C9.13419 20.2455 9.92804 21.7316 11.0937 22.8977C12.2593 24.0639 13.7444 24.8581 15.3611 25.1798C16.9778 25.5016 18.6535 25.3362 20.1764 24.7049C21.6992 24.0735 23.0007 23.0044 23.9164 21.633C24.832 20.2615 25.3206 18.649 25.3205 16.9996C25.3205 15.9045 25.105 14.8201 24.6861 13.8084C24.2672 12.7967 23.6534 11.8774 22.8795 11.1031C22.1055 10.3288 21.1868 9.71459 20.1756 9.29559C19.1645 8.87661 18.0808 8.66102 16.9864 8.66113Z" fill="#FF494D"/>
<path d="M16.9869 3.76275C24.2836 3.76275 30.2163 9.70116 30.2163 16.9997C30.2163 24.2982 24.2818 30.2375 16.9869 30.2375C9.69215 30.2375 3.75848 24.2992 3.75848 16.9997C3.75848 9.70021 9.69309 3.76275 16.9869 3.76275ZM16.9869 0.976074C13.8196 0.976074 10.7233 1.91592 8.08978 3.67677C5.45624 5.43761 3.40365 7.94036 2.19159 10.8685C0.979533 13.7967 0.662452 17.0187 1.28044 20.1273C1.89843 23.2358 3.42373 26.0911 5.66346 28.332C7.90319 30.5731 10.7568 32.0991 13.8633 32.7173C16.9698 33.3356 20.1898 33.0182 23.116 31.805C26.0421 30.5921 28.5432 28.538 30.3028 25.9027C32.0623 23.2674 33.0013 20.1691 33.0011 16.9997C33.0011 14.8953 32.5869 12.8116 31.7822 10.8675C30.9774 8.92337 29.7978 7.15689 28.3106 5.66896C26.8236 4.181 25.0583 3.00074 23.1152 2.19553C21.1723 1.39032 19.0899 0.975951 16.9869 0.976074Z" fill="#FF494D"/>
</svg>
