<svg width="24" height="24" viewBox="0 0 24 24" fill="none" xmlns="http://www.w3.org/2000/svg">
<path fill-rule="evenodd" clip-rule="evenodd" d="M1 6C1 4.34315 2.34315 3 4 3H20C21.6569 3 23 4.34315 23 6V18C23 19.6569 21.6569 21 20 21H4C2.34315 21 1 19.6569 1 18V6ZM4 5H20C20.5523 5 21 5.44771 21 6V18C21 18.5523 20.5523 19 20 19H4C3.44772 19 3 18.5523 3 18V6C3 5.44772 3.44772 5 4 5ZM18 11C18.5523 11 19 11.4477 19 12C19 12.5523 18.5523 13 18 13H10C9.44772 13 9 12.5523 9 12C9 11.4477 9.44772 11 10 11H18ZM5 16C5 15.4477 5.44772 15 6 15H14C14.5523 15 15 15.4477 15 16C15 16.5523 14.5523 17 14 17H6C5.44772 17 5 16.5523 5 16ZM17 15C16.4477 15 16 15.4477 16 16C16 16.5523 16.4477 17 17 17H18C18.5523 17 19 16.5523 19 16C19 15.4477 18.5523 15 18 15H17ZM7 11C7.55228 11 8 11.4477 8 12C8 12.5523 7.55228 13 7 13H6C5.44772 13 5 12.5523 5 12C5 11.4477 5.44772 11 6 11H7Z" fill="#8F92A1"/>
</svg>
