<svg width="44" height="44" viewBox="0 0 44 44" fill="none" xmlns="http://www.w3.org/2000/svg">
<path d="M5.49997 0H28.8653L41.2499 12.3365V41.25C41.2499 42.7693 40.018 44 38.4999 44H5.49997C3.98193 44 2.75 42.7693 2.75 41.25V2.74997C2.75 1.23065 3.98207 0 5.49997 0Z" fill="#FFF9DD"/>
<rect x="10" y="16" width="24" height="24" rx="4" fill="#FFD200"/>
<path d="M14.5125 25.4H16.7525C17.3285 25.4 17.8138 25.584 18.2085 25.952C18.5978 26.3093 18.7925 26.7947 18.7925 27.408C18.7925 28.016 18.5978 28.504 18.2085 28.872C17.8138 29.2347 17.3285 29.416 16.7525 29.416H16.1125V31H14.5125V25.4ZM16.1125 27.864H16.7525C16.8805 27.864 16.9845 27.824 17.0645 27.744C17.1498 27.6587 17.1925 27.5467 17.1925 27.408C17.1925 27.2693 17.1498 27.16 17.0645 27.08C16.9845 26.9947 16.8805 26.952 16.7525 26.952H16.1125V27.864ZM22.5103 27.96V25.4H24.1103V31H22.8303L21.0703 28.44V31H19.4703V25.4H20.7503L22.5103 27.96ZM27.8358 27.696H30.6838V28.36C30.6838 29.1653 30.4251 29.8267 29.9078 30.344C29.3958 30.8667 28.7211 31.128 27.8838 31.128C27.0091 31.128 26.2945 30.8507 25.7398 30.296C25.1851 29.7307 24.9078 29.0347 24.9078 28.208C24.9078 27.3813 25.1851 26.6853 25.7398 26.12C26.2891 25.5547 26.9825 25.272 27.8198 25.272C28.3371 25.272 28.8118 25.3893 29.2438 25.624C29.6811 25.8533 30.0278 26.1707 30.2838 26.576L28.9238 27.352C28.6998 27.0107 28.3425 26.84 27.8518 26.84C27.4518 26.84 27.1265 26.968 26.8758 27.224C26.6305 27.4747 26.5078 27.8053 26.5078 28.216C26.5078 28.6053 26.6225 28.9413 26.8518 29.224C27.0865 29.5067 27.4411 29.648 27.9158 29.648C28.4705 29.648 28.8411 29.4507 29.0278 29.056H27.8358V27.696Z" fill="white"/>
<path d="M41.2101 12.3748H31.625C30.1069 12.3748 28.875 11.1429 28.875 9.62487V0.0273438L41.2101 12.3748Z" fill="#FFD200"/>
</svg>
