<svg width="45" height="44" viewBox="0 0 45 44" fill="none" xmlns="http://www.w3.org/2000/svg">
<g clip-path="url(#clip0)">
<path d="M32.9768 10.0876C32.4705 10.0876 32.0601 10.4981 32.0601 11.0043V16.5043C32.0601 17.0106 32.4705 17.421 32.9768 17.421H38.4768C38.983 17.421 39.3934 17.0106 39.3934 16.5043C39.3934 12.9605 36.5206 10.0876 32.9768 10.0876Z" fill="#FF5722"/>
<path d="M32.9768 19.2542C31.458 19.2542 30.2268 18.023 30.2268 16.5042V12.0144C26.7263 12.5123 24.2923 15.7537 24.7902 19.2542C25.2881 22.7547 28.5295 25.1887 32.03 24.6908C34.8498 24.2896 37.0654 22.074 37.4666 19.2542H32.9768Z" fill="#FF5722"/>
<path d="M26.2156 1.11857C25.9981 0.941884 25.7117 0.874337 25.4383 0.935267L1.60499 6.43527C1.18553 6.53169 0.889556 6.90689 0.893596 7.33727V38.504C0.893767 38.9562 1.22385 39.3409 1.6709 39.4097L25.5042 43.0764C26.0046 43.1533 26.4726 42.81 26.5495 42.3097C26.5566 42.2637 26.5602 42.2172 26.5602 42.1707V1.83727C26.5611 1.55771 26.4341 1.29311 26.2156 1.11857Z" fill="#FF5722"/>
<path d="M43.9771 39.421H25.6437C25.1375 39.421 24.7271 39.0105 24.7271 38.5043C24.7271 37.998 25.1375 37.5876 25.6437 37.5876H43.0604V6.42095H25.6437C25.1375 6.42095 24.7271 6.01051 24.7271 5.50426C24.7271 4.998 25.1375 4.58765 25.6437 4.58765H43.977C44.4833 4.58765 44.8937 4.99808 44.8937 5.50434V38.5043C44.8937 39.0106 44.4834 39.421 43.9771 39.421Z" fill="#FF5722"/>
<path d="M38.4771 33.9208H25.6437C25.1375 33.9208 24.7271 33.5104 24.7271 33.0041C24.7271 32.4978 25.1375 32.0874 25.6437 32.0874H38.477C38.9833 32.0874 39.3937 32.4978 39.3937 33.0041C39.3937 33.5104 38.9834 33.9208 38.4771 33.9208Z" fill="#FF5722"/>
<path d="M38.4771 28.4208H25.6437C25.1375 28.4208 24.7271 28.0104 24.7271 27.5041C24.7271 26.9978 25.1375 26.5874 25.6437 26.5874H38.477C38.9833 26.5874 39.3937 26.9978 39.3937 27.5041C39.3937 28.0104 38.9834 28.4208 38.4771 28.4208Z" fill="#FF5722"/>
<path d="M9.14326 30.2541C8.637 30.2541 8.22656 29.8437 8.22656 29.3374V14.6707C8.22656 14.1645 8.637 13.754 9.14326 13.754H12.81C15.3412 13.754 17.3933 15.806 17.3933 18.3373V20.1706C17.3933 22.7019 15.3412 24.7539 12.81 24.7539H10.06V29.3372C10.06 29.8437 9.6496 30.2541 9.14326 30.2541ZM10.06 22.9207H12.81C14.3287 22.9207 15.56 21.6895 15.56 20.1707V18.3374C15.56 16.8186 14.3287 15.5874 12.81 15.5874H10.06V22.9207Z" fill="#FAFAFA"/>
</g>
<defs>
<clipPath id="clip0">
<rect width="44" height="44" fill="white" transform="translate(0.893555)"/>
</clipPath>
</defs>
</svg>
