<svg width="88" height="88" viewBox="0 0 88 88" fill="none" xmlns="http://www.w3.org/2000/svg">
<g filter="url(#filter0_d)">
<rect x="20" y="10" width="48" height="48" rx="24" fill="white"/>
</g>
<path d="M44.0781 32.7325C44.0781 32.7325 46.0009 33.0122 46.8006 33.1347C47.6003 33.2579 47.8052 32.141 47.8052 32.141C47.8052 32.141 50.7264 31.2998 51.2083 31.7817C51.6902 32.2636 51.0443 33.7289 50.6549 34.7948C50.2656 35.8606 49.5687 36.0859 48.4001 36.0859C47.2314 36.0859 46.186 35.9831 46.186 35.9831L44.0781 32.7325Z" fill="#0091C8"/>
<path d="M38.5464 32.8585C38.5464 32.8585 36.231 33.1199 35.5081 33.8427C34.7853 34.5655 32.802 36.0874 33.0484 37.3785C33.2941 38.6696 34.6165 41.5296 35.6007 41.8372C36.5849 42.1449 38.2449 41.499 38.4607 41.4221C38.6757 41.3451 38.5471 41.0681 38.5471 41.0681C38.5471 41.0681 38.8759 40.9449 39.1216 40.4073C39.3673 39.8689 39.0603 38.332 38.5832 38.332C38.1068 38.332 38.3525 38.5008 38.0605 38.5934C37.7685 38.686 36.8456 38.0863 36.8456 37.7937C36.8456 37.5017 38.5464 36.3943 38.5464 36.3943C38.5464 36.3943 40.7353 39.7974 40.7353 40.412C40.7353 41.0273 39.8131 43.4353 39.3516 44.5121C38.8901 45.5881 36.2153 48.6325 36.7074 50.5389L42.396 50.754C42.396 50.754 42.1959 49.4779 43.1032 48.5706C44.0104 47.6633 44.9483 46.5716 45.6555 44.7884C46.3627 43.0052 47.3775 42.1136 48.0846 42.1136C48.7918 42.1136 49.776 42.1442 49.776 42.1442C49.776 42.1442 51.2828 44.7271 51.4979 45.2192C51.713 45.7113 52.8816 46.5417 52.8816 46.5417L58.1088 42.9746C58.1088 42.9746 57.371 41.437 56.233 41.6215C55.095 41.8059 54.8649 41.6984 54.7567 41.8059C54.6492 41.9135 54.3572 39.9301 53.8345 39.0692C53.3118 38.2082 51.8668 37.0089 49.1913 37.7467C49.1913 37.7467 47.2849 33.9033 44.4562 32.8578C41.6269 31.8131 38.5464 32.8585 38.5464 32.8585Z" fill="#A5D7FE"/>
<path d="M39.3421 32.6487C38.8453 32.7569 38.5465 32.8583 38.5465 32.8583C38.5465 32.8583 36.7789 32.8161 35.5824 33.7595C34.7799 34.3924 32.802 36.0865 33.0484 37.3783C33.205 38.2012 33.7985 39.6604 34.4634 40.6909L35.6722 39.4079C35.6722 39.4079 34.6676 38.0753 34.7547 36.3533C34.8419 34.6313 39.3421 32.6487 39.3421 32.6487Z" fill="#0091C8"/>
<path d="M37.0107 33.0163C37.0107 33.0163 36.5206 33.2886 36.8793 33.6473C37.238 34.0059 42.8381 33.846 43.9809 32.7032C43.9809 32.7032 44.1374 32.0505 43.5011 32.1519C42.8654 32.254 37.0107 33.0163 37.0107 33.0163Z" fill="#165F6E"/>
<path d="M36.552 18.7655C34.796 19.1385 32.452 19.9137 31.0996 23.4393C30.306 25.507 30.713 27.9436 31.8122 29.8221C33.1265 32.0689 35.235 33.0102 37.7635 33.2225C38.2747 33.2654 38.7865 33.279 39.299 33.279C40.2416 33.279 43.3473 32.8591 44.4547 31.7517C45.5614 30.645 47.3351 26.1863 45.7771 23.2753C44.2185 20.3643 41.8214 17.6472 36.552 18.7655Z" fill="#A5D7FE"/>
<path d="M34.5551 29.0551C33.4559 26.7662 33.0489 23.7994 33.8425 21.2804C34.0698 20.5589 34.325 19.9321 34.6007 19.3862C33.3041 19.994 31.9885 21.1232 31.0996 23.4393C30.306 25.507 30.713 27.9437 31.8122 29.8222C33.1265 32.0689 35.235 33.0102 37.7635 33.2225C38.2747 33.2654 38.7865 33.279 39.299 33.279C39.5467 33.279 39.9442 33.2498 40.4152 33.1871C37.9275 32.9101 35.8537 31.7592 34.5551 29.0551Z" fill="#3E92A3"/>
<path d="M34.5551 29.0551C33.4559 26.7662 33.0489 23.7994 33.8425 21.2804C34.0698 20.5589 34.325 19.9321 34.6007 19.3862C33.3041 19.994 31.9885 21.1232 31.0996 23.4393C30.306 25.507 30.713 27.9437 31.8122 29.8222C33.1265 32.0689 35.235 33.0102 37.7635 33.2225C38.2747 33.2654 38.7865 33.279 39.299 33.279C39.5467 33.279 39.9442 33.2498 40.4152 33.1871C37.9275 32.9101 35.8537 31.7592 34.5551 29.0551Z" fill="#3E92A3"/>
<path d="M34.6001 19.3862C32.4493 20.4841 31.0616 22.8179 30.8267 25.1347C30.5436 28.1424 32.2839 31.6156 35.4257 32.6923C36.173 32.9748 36.9666 33.1211 37.7629 33.2225C36.5317 33.1409 35.3685 32.9271 34.2652 32.337C29.2361 29.6302 29.4356 21.588 34.6001 19.3862Z" fill="#073B46"/>
<path d="M44.075 20.7855C44.075 20.7855 42.5797 20.4663 40.7039 21.2967C38.8281 22.127 34.3388 24.8944 34.6158 26.4626C34.8928 28.0307 38.7362 30.306 42.2414 28.5841C45.7466 26.8621 45.2906 22.3768 44.9782 21.9385C44.6658 21.5002 44.075 20.7855 44.075 20.7855Z" fill="#FFB303"/>
<path d="M34.9784 26.3986C34.9444 26.2059 34.9954 25.4573 37.0733 23.898C38.3951 22.907 39.9585 22.0297 40.8528 21.6342C41.6886 21.264 42.5462 21.0931 43.3269 21.0945C43.9353 21.0952 44.1967 21.509 44.5486 21.9779C45.0366 22.6286 44.7943 24.4683 44.5091 25.3586C44.081 26.6973 43.2629 27.6713 42.0779 28.2532C38.7803 29.8731 35.2057 27.689 34.9784 26.3986Z" fill="#073B46"/>
<path d="M36.0599 19.1841C36.2831 19.506 35.6569 20.3269 34.6619 21.017C33.6668 21.7072 32.6786 22.006 32.4553 21.684C32.2321 21.3621 32.8582 20.5413 33.8533 19.8511C34.8491 19.161 35.8366 18.8622 36.0599 19.1841Z" fill="#073B46"/>
<path d="M35.9485 19.0249C36.1718 19.3468 35.5463 20.1676 34.5506 20.8578C33.5548 21.5479 32.5672 21.8467 32.344 21.5241C32.1207 21.2022 32.7469 20.3813 33.742 19.6912C34.737 19.001 35.7246 18.7022 35.9485 19.0249Z" fill="#00B3D9"/>
<path d="M33.9459 20.4874L31.9354 18.0624C31.8966 18.0161 31.9034 17.9467 31.9497 17.9085C31.9912 17.8738 32.0511 17.8759 32.0913 17.9099L34.4734 19.9708C34.6279 20.1049 34.6449 20.3383 34.5109 20.4928C34.3768 20.6473 34.1433 20.6644 33.9888 20.5303C33.9739 20.518 33.9589 20.5024 33.9459 20.4874Z" fill="#FFB303"/>
<path d="M31.7114 18.3994C32.0978 18.3994 32.4111 18.0861 32.4111 17.6997C32.4111 17.3133 32.0978 17 31.7114 17C31.325 17 31.0117 17.3133 31.0117 17.6997C31.0117 18.0861 31.325 18.3994 31.7114 18.3994Z" fill="#FFB303"/>
<path d="M42.3898 50.1523C42.4286 49.7459 41.2613 48.9877 40.8387 48.5651C40.0287 47.7551 41.1851 46.6641 42.0053 44.8605C42.8254 43.0568 42.8867 42.1339 42.8867 40.5351C42.8867 38.9364 40.7134 35.3896 40.0934 35.3896C39.4727 35.3896 38.5457 36.3942 38.5457 36.3942C38.5457 36.3942 40.7345 39.7973 40.7345 40.4119C40.7345 41.0272 39.8123 43.4352 39.3508 44.512C38.8894 45.588 36.2146 48.6324 36.7066 50.5389L42.3953 50.7539C42.3946 50.7539 42.3558 50.5069 42.3898 50.1523Z" fill="#3E92A3"/>
<path d="M38.5448 36.3943C40.8256 39.6517 40.831 40.3929 40.8378 40.4052C40.8508 41.0048 39.7502 44.22 39.0233 45.3158C37.9513 46.9377 36.3975 49.0061 36.7051 50.5389C36.1341 48.5576 38.8647 45.452 39.2867 44.3514C39.5181 43.7981 40.6309 41.0136 40.6275 40.4086C40.6119 40.3732 40.7412 40.2704 39.5195 38.0904C39.205 37.52 38.8729 36.9592 38.5448 36.3943Z" fill="#073B46"/>
<path d="M57.5359 42.1652C57.5359 42.1652 53.1711 44.5269 52.6334 43.9892C52.0951 43.4509 51.0347 41.5737 50.2969 41.5737C49.6414 41.5737 48.1264 42.0508 47.7949 42.1584C47.895 42.1284 47.9916 42.1135 48.0828 42.1135C48.79 42.1135 49.7742 42.1441 49.7742 42.1441C49.7742 42.1441 51.281 44.727 51.4961 45.2191C51.7112 45.7112 52.8798 46.5416 52.8798 46.5416L58.107 42.9744C58.1063 42.9744 57.8994 42.5436 57.5359 42.1652Z" fill="#3E92A3"/>
<path d="M49.855 42.0978L49.8257 42.0515C49.3724 42.061 48.7905 42.0665 48.084 42.1141C48.6298 42.1706 49.1743 42.206 49.7182 42.2346C50.1694 43.0758 51.3503 45.1545 51.3537 45.1599C51.6321 45.718 52.3481 46.2189 52.881 46.5416C51.0644 44.9571 52.1759 45.7738 49.855 42.0978Z" fill="#073B46"/>
<path d="M51.9707 45.8965C52.394 46.3198 52.88 46.5417 52.88 46.5417L58.1072 42.9746C58.1072 42.9746 57.9363 42.6186 57.6328 42.2701L51.9707 45.8965Z" fill="#FFB303"/>
<path d="M42.4379 40.97C41.3475 40.97 40.6873 40.7236 40.6234 40.6984C40.2449 40.5508 40.4682 39.9784 40.8466 40.1254C40.8936 40.1431 44.4266 41.4233 48.9909 37.5138C49.2999 37.2491 49.7001 37.716 49.3911 37.9807C46.5073 40.4507 44.0196 40.97 42.4379 40.97Z" fill="#073B46"/>
<path d="M36.7055 50.5388C36.7055 50.5388 38.3349 49.0217 39.9956 49.0217C41.6563 49.0217 42.3941 50.7539 42.3941 50.7539L42.5785 51.4815H36.3672L36.7055 50.5388Z" fill="#A5D7FE"/>
<path d="M42.5785 51.4821L42.3941 50.7545C42.3941 50.7545 42.358 50.6701 42.2845 50.5394C41.7788 51.0451 36.7055 50.5394 36.7055 50.5394L36.3672 51.4821H42.5785Z" fill="#FFB303"/>
<path d="M49.9138 42.641C49.9138 42.641 53.6933 39.943 53.826 39.3114C53.9588 38.6798 53.2632 38.3946 53.2632 38.3946C53.2632 38.3946 53.0467 37.7786 52.5546 37.7786C52.245 37.7786 52.132 37.7371 52.132 37.7371C52.132 37.7371 52.021 37.5125 51.4684 37.5432C50.9157 37.5731 49.2598 42.2088 49.2598 42.2088C49.2598 42.2088 49.4735 42.6648 49.9138 42.641Z" fill="#FFB303"/>
<path d="M39.8138 43.0194C39.8138 43.0194 42.1647 44.7863 44.0329 45.9692C45.4806 46.886 44.214 47.3264 44.214 47.3264C44.214 47.3264 44.4481 47.7667 43.8383 47.9001C43.8383 47.9001 43.7171 48.1703 43.4299 48.233C43.1427 48.2956 38.9515 45.9059 38.9093 45.0946C38.8671 44.2833 39.2836 44.3024 39.2836 44.3024C39.2836 44.3024 39.0522 44.0839 39.2305 43.7259C39.4088 43.3686 39.549 43.387 39.549 43.387C39.549 43.387 39.2482 43.0167 39.8138 43.0194Z" fill="#FFB303"/>
<path d="M36.8438 37.7936C36.8438 37.7936 34.6209 35.6857 33.7341 35.6095C32.8466 35.5333 33.0256 36.5637 33.0256 36.5637C33.0256 36.5637 32.6621 36.8251 32.6621 37.2865C32.6621 37.748 33.0256 37.7936 33.0256 37.7936C33.0256 37.7936 32.7588 38.0087 33.0256 38.4239C33.2924 38.839 36.8438 37.7936 36.8438 37.7936Z" fill="#FFB303"/>
<path d="M46.9238 33.1442C46.9238 33.1442 48.6689 36.1334 48.9915 36.2178C49.3142 36.3022 49.4911 36.0871 49.4911 36.0871C49.4911 36.0871 49.8906 36.1797 50.2214 35.9565C50.5012 35.7679 50.4984 35.4181 50.4984 35.4181C50.4984 35.4181 50.8905 35.3718 50.8905 35.0723C50.8905 34.7729 50.7298 34.5993 50.7298 34.5993C50.7298 34.5993 47.5568 33.2544 47.3193 33.0162C47.0811 32.778 46.9238 33.1442 46.9238 33.1442Z" fill="#FFB303"/>
<path d="M37.5242 38.276C37.3432 37.6287 36.1078 38.8008 35.7648 39.073C35.2026 39.5188 34.718 40.0368 34.2879 40.6092C34.1449 40.7991 34.4655 40.9828 34.6064 40.7957C35.159 40.0606 37.1294 38.4271 37.3432 38.372C37.4677 38.438 37.5691 38.4387 37.5242 38.276Z" fill="#165F6E"/>
<path d="M47.6159 32.3915C48.8628 32.9401 50.1989 33.0368 51.5077 32.6522C51.735 32.5855 51.6384 32.2296 51.4097 32.2963C50.1989 32.6515 48.9595 32.5821 47.8024 32.0723C47.5867 31.9784 47.3988 32.2963 47.6159 32.3915Z" fill="#165F6E"/>
<path d="M51.881 38.0862C51.4869 38.9724 51.0105 39.8095 50.4496 40.5997C50.3121 40.7937 50.632 40.9782 50.7682 40.7862C51.3297 39.9953 51.8061 39.1589 52.1995 38.2727C52.2955 38.0576 51.9776 37.8698 51.881 38.0862Z" fill="#FF7A81"/>
<path d="M52.749 38.7137C51.9139 39.7414 50.9896 40.6814 49.9755 41.5335C49.7938 41.6866 50.0558 41.9466 50.2362 41.7942C51.2496 40.9427 52.1746 40.0021 53.0097 38.9744C53.1587 38.792 52.8987 38.5293 52.749 38.7137Z" fill="#FF7A81"/>
<path d="M39.3522 44.8781C40.3697 46.0052 41.6547 46.8049 43.1126 47.2262C43.3413 47.2922 43.4386 46.9363 43.2106 46.8703C41.8099 46.4653 40.5902 45.6996 39.6128 44.6174C39.4536 44.4411 39.1936 44.7025 39.3522 44.8781Z" fill="#FF7A81"/>
<path d="M40.0697 44.3514C40.7898 44.9844 42.9807 46.7799 43.9833 46.9167C44.2154 46.9486 44.3161 46.5927 44.0813 46.5607C43.1373 46.4321 40.992 44.6727 40.3304 44.0907C40.1527 43.9342 39.8907 44.1942 40.0697 44.3514Z" fill="#FF7A81"/>
<path d="M35.5383 37.8473C35.7752 37.867 35.8085 37.5798 35.573 37.56C34.7291 37.4886 33.9538 37.5165 33.1282 37.7009C32.8968 37.7527 33.0003 37.9643 33.2324 37.9126C33.994 37.7418 34.6943 37.7758 35.5383 37.8473Z" fill="#FF7A81"/>
<path d="M33.283 36.8842C34.0494 36.7848 34.8484 37.1632 35.5325 37.4545C35.7482 37.5464 35.898 37.317 35.6802 37.2245C34.9383 36.9087 34.1161 36.407 33.283 36.5153C33.0503 36.5452 33.0475 36.9148 33.283 36.8842Z" fill="#FF7A81"/>
<path d="M49.4857 35.5414C48.9405 34.9377 48.3592 34.3708 47.7426 33.8399C47.5636 33.6854 47.3369 33.91 47.5173 34.0652C48.1339 34.5961 48.6791 35.1984 49.225 35.8021C49.3842 35.9791 49.6449 35.7177 49.4857 35.5414Z" fill="#FF7A81"/>
<path d="M50.2814 35.1107C49.677 34.6683 49.0406 34.2796 48.3716 33.9427C48.1599 33.8365 48.034 34.0931 48.2463 34.2C48.9154 34.5362 49.4905 34.9868 50.0949 35.4292C50.2868 35.5694 50.4713 35.2495 50.2814 35.1107Z" fill="#FF7A81"/>
<path d="M42.5396 21.767C41.825 22.1876 42.4505 23.0037 41.7569 25.5812C41.678 25.8739 41.8134 26.1522 42.055 26.3142C42.3824 26.5341 42.9146 26.3244 43.0086 25.9263C43.2937 24.7141 43.406 23.5114 43.2447 22.2741C43.1835 21.8038 42.7336 21.6527 42.5396 21.767Z" fill="#073B46"/>
<path d="M44.7297 33.7344C44.7297 33.7344 42.5293 34.0216 42.5293 34.6927C42.5293 35.3638 44.8502 37.9876 45.9984 37.2498C47.1466 36.512 44.7297 33.7344 44.7297 33.7344Z" fill="#C9E7FE"/>
<path d="M39.6425 19.0861C38.9095 18.8874 37.8198 18.9194 36.8459 20.2745C35.8719 21.6296 38.3419 20.4344 40.428 20.4344C42.5141 20.4344 40.0189 19.1882 39.6425 19.0861Z" fill="#C9E7FE"/>
<path d="M48.3497 30.1521C48.3497 30.1521 47.2532 30.306 47.2117 30.9621C47.1708 31.6182 47.3757 32.2947 48.79 32.6017C50.2044 32.9093 51.0041 31.5896 51.2648 31.8503C51.2648 31.851 50.7277 29.835 48.3497 30.1521Z" fill="#A5D7FE"/>
<defs>
<filter id="filter0_d" x="0" y="0" width="88" height="88" filterUnits="userSpaceOnUse" color-interpolation-filters="sRGB">
<feFlood flood-opacity="0" result="BackgroundImageFix"/>
<feColorMatrix in="SourceAlpha" type="matrix" values="0 0 0 0 0 0 0 0 0 0 0 0 0 0 0 0 0 0 127 0"/>
<feOffset dy="10"/>
<feGaussianBlur stdDeviation="10"/>
<feColorMatrix type="matrix" values="0 0 0 0 0.160784 0 0 0 0 0.160784 0 0 0 0 0.164706 0 0 0 0.07 0"/>
<feBlend mode="normal" in2="BackgroundImageFix" result="effect1_dropShadow"/>
<feBlend mode="normal" in="SourceGraphic" in2="effect1_dropShadow" result="shape"/>
</filter>
</defs>
</svg>
