<svg width="16" height="16" viewBox="0 0 16 16" fill="none" xmlns="http://www.w3.org/2000/svg">
<path fill-rule="evenodd" clip-rule="evenodd" d="M11.3333 3.33398V2.66732C11.3333 1.93094 10.7364 1.33398 10 1.33398H6C5.26362 1.33398 4.66667 1.93094 4.66667 2.66732V3.33398H2.66667C2.29848 3.33398 2 3.63246 2 4.00065C2 4.36884 2.29848 4.66732 2.66667 4.66732H3.33333V12.0007C3.33333 13.1053 4.22877 14.0007 5.33333 14.0007H10.6667C11.7713 14.0007 12.6667 13.1053 12.6667 12.0007V4.66732H13.3333C13.7015 4.66732 14 4.36884 14 4.00065C14 3.63246 13.7015 3.33398 13.3333 3.33398H11.3333ZM10 2.66732H6V3.33398H10V2.66732ZM11.3333 4.66732H4.66667V12.0007C4.66667 12.3689 4.96515 12.6673 5.33333 12.6673H10.6667C11.0349 12.6673 11.3333 12.3689 11.3333 12.0007V4.66732ZM6 6.00065H7.33333V11.334H6V6.00065ZM10 6.00065H8.66667V11.334H10V6.00065Z" fill="#FF494D"/>
</svg>
