<svg width="12" height="13" viewBox="0 0 12 13" fill="none" xmlns="http://www.w3.org/2000/svg">
<path fill-rule="evenodd" clip-rule="evenodd" d="M9.33333 2.33325V1.66659C9.33333 0.930205 8.7364 0.333252 8 0.333252H4C3.26362 0.333252 2.66667 0.930205 2.66667 1.66659V2.33325H0.666667C0.29848 2.33325 0 2.63173 0 2.99992C0 3.36811 0.29848 3.66659 0.666667 3.66659H1.33333V10.9999C1.33333 12.1045 2.22877 12.9999 3.33333 12.9999H8.66667C9.77127 12.9999 10.6667 12.1045 10.6667 10.9999V3.66659H11.3333C11.7015 3.66659 12 3.36811 12 2.99992C12 2.63173 11.7015 2.33325 11.3333 2.33325H9.33333ZM8 1.66659H4V2.33325H8V1.66659ZM9.33333 3.66658H2.66667V10.9999C2.66667 11.3681 2.96515 11.6666 3.33333 11.6666H8.66667C9.03487 11.6666 9.33333 11.3681 9.33333 10.9999V3.66658ZM4 4.99992H5.33333V10.3333H4V4.99992ZM8 4.99992H6.66667V10.3333H8V4.99992Z" fill="#FF494D"/>
</svg>
