<svg width="24" height="24" viewBox="0 0 24 24" fill="none" xmlns="http://www.w3.org/2000/svg">
<g clip-path="url(#clip0)">
<path d="M8.7998 15.4477L10.0189 8.59058H11.9236L10.7427 15.4477H8.7998Z" fill="#3C58BF"/>
<path d="M8.7998 15.4477L10.3617 8.59058H11.9236L10.7427 15.4477H8.7998Z" fill="#293688"/>
<path d="M17.6381 8.66658C17.2572 8.5142 16.6477 8.36182 15.8858 8.36182C13.981 8.36182 12.6096 9.3142 12.6096 10.6856C12.6096 11.7142 13.562 12.2475 14.3239 12.5904C15.0858 12.9332 15.3143 13.1618 15.3143 13.4666C15.3143 13.9237 14.7048 14.1523 14.1715 14.1523C13.4096 14.1523 12.9905 14.038 12.3429 13.7713L12.0762 13.6571L11.8096 15.219C12.2667 15.4094 13.1048 15.5999 13.981 15.5999C16 15.5999 17.3334 14.6475 17.3334 13.1999C17.3334 12.3999 16.8381 11.7904 15.6953 11.2951C15.0096 10.9523 14.5905 10.7618 14.5905 10.419C14.5905 10.1142 14.9334 9.80944 15.6953 9.80944C16.3429 9.80944 16.8 9.92372 17.1429 10.0761L17.3334 10.1523L17.6381 8.66658Z" fill="#3C58BF"/>
<path d="M17.6381 8.66658C17.2572 8.5142 16.6477 8.36182 15.8858 8.36182C13.981 8.36182 12.9524 9.3142 12.9524 10.6856C12.9524 11.7142 13.562 12.2475 14.3239 12.5904C15.0858 12.9332 15.3143 13.1618 15.3143 13.4666C15.3143 13.9237 14.7048 14.1523 14.1715 14.1523C13.4096 14.1523 12.9905 14.038 12.3429 13.7713L12.0762 13.6571L11.8096 15.219C12.2667 15.4094 13.1048 15.5999 13.981 15.5999C16 15.5999 17.3334 14.6475 17.3334 13.1999C17.3334 12.3999 16.8381 11.7904 15.6953 11.2951C15.0096 10.9523 14.5905 10.7618 14.5905 10.419C14.5905 10.1142 14.9334 9.80944 15.6953 9.80944C16.3429 9.80944 16.8 9.92372 17.1429 10.0761L17.3334 10.1523L17.6381 8.66658Z" fill="#293688"/>
<path d="M20.914 8.59058C20.4569 8.59058 20.114 8.62867 19.9235 9.08581L17.0664 15.4477H19.1235L19.5045 14.3049H21.9426L22.1712 15.4477H23.9997L22.3997 8.59058H20.914ZM20.0378 13.162C20.1521 12.8191 20.7997 11.143 20.7997 11.143C20.7997 11.143 20.9521 10.7239 21.0664 10.4572L21.1807 11.1049C21.1807 11.1049 21.5616 12.8191 21.6378 13.2001H20.0378V13.162Z" fill="#3C58BF"/>
<path d="M21.3712 8.59058C20.914 8.59058 20.5712 8.62867 20.3807 9.08581L17.0664 15.4477H19.1235L19.5045 14.3049H21.9426L22.1712 15.4477H23.9997L22.3997 8.59058H21.3712ZM20.0378 13.162C20.1902 12.7811 20.7997 11.143 20.7997 11.143C20.7997 11.143 20.9521 10.7239 21.0664 10.4572L21.1807 11.1049C21.1807 11.1049 21.5616 12.8191 21.6378 13.2001H20.0378V13.162Z" fill="#293688"/>
<path d="M5.29464 13.3906L5.10417 12.4001C4.76131 11.2572 3.65655 10.0001 2.4375 9.39057L4.15179 15.4858H6.20893L9.29464 8.62866H7.2375L5.29464 13.3906Z" fill="#3C58BF"/>
<path d="M5.29464 13.3906L5.10417 12.4001C4.76131 11.2572 3.65655 10.0001 2.4375 9.39057L4.15179 15.4858H6.20893L9.29464 8.62866H7.61845L5.29464 13.3906Z" fill="#293688"/>
<path d="M0 8.59058L0.342857 8.66677C2.78095 9.2382 4.45714 10.6858 5.10476 12.4001L4.41905 9.162C4.30476 8.70486 3.9619 8.59058 3.54286 8.59058H0Z" fill="#FFBC00"/>
<path d="M0 8.59058C2.4381 9.162 4.45714 10.6477 5.10476 12.362L4.45714 9.65724C4.34286 9.2001 3.9619 8.93343 3.54286 8.93343L0 8.59058Z" fill="#F7981D"/>
<path d="M0 8.59058C2.4381 9.162 4.45714 10.6477 5.10476 12.362L4.64762 10.8763C4.53333 10.4191 4.38095 9.962 3.84762 9.77153L0 8.59058Z" fill="#ED7C00"/>
<path d="M7.20037 13.1619L5.90513 11.8667L5.29561 13.3143L5.14323 12.3619C4.80037 11.2191 3.69561 9.96194 2.47656 9.35242L4.19085 15.4477H6.24799L7.20037 13.1619Z" fill="#051244"/>
<path d="M10.7436 15.4477L9.10554 13.7715L8.80078 15.4477H10.7436Z" fill="#051244"/>
<path d="M15.1239 13.0858C15.2762 13.2382 15.3524 13.3525 15.3143 13.5049C15.3143 13.962 14.7048 14.1906 14.1715 14.1906C13.4096 14.1906 12.9905 14.0763 12.3429 13.8096L12.0762 13.6953L11.8096 15.2572C12.2667 15.4477 13.1048 15.6382 13.981 15.6382C15.2 15.6382 16.1905 15.2953 16.762 14.6858L15.1239 13.0858Z" fill="#051244"/>
<path d="M17.334 15.4478H19.1245L19.5054 14.3049H21.9435L22.1721 15.4478H24.0007L23.353 12.6668L21.0673 10.4573L21.1816 11.0668C21.1816 11.0668 21.5626 12.7811 21.6387 13.162H20.0387C20.1911 12.7811 20.8007 11.143 20.8007 11.143C20.8007 11.143 20.953 10.7239 21.0673 10.4573" fill="#051244"/>
</g>
<defs>
<clipPath id="clip0">
<rect width="24" height="24" fill="white"/>
</clipPath>
</defs>
</svg>
