<svg width="45" height="44" viewBox="0 0 45 44" fill="none" xmlns="http://www.w3.org/2000/svg">
<g clip-path="url(#clip0)">
<path d="M26.2156 1.11821C25.9981 0.941518 25.7117 0.873971 25.4383 0.934901L1.60499 6.4349C1.18553 6.53132 0.889556 6.90653 0.893596 7.3369V38.5036C0.893767 38.9559 1.22385 39.3405 1.6709 39.4093L25.5042 43.076C26.0046 43.1529 26.4726 42.8097 26.5496 42.3093C26.5566 42.2634 26.5602 42.2169 26.5602 42.1704V1.8369C26.5611 1.55735 26.4341 1.29274 26.2156 1.11821Z" fill="#1565C0"/>
<path d="M43.9771 39.4202H25.6437C25.1375 39.4202 24.7271 39.0098 24.7271 38.5035C24.7271 37.9973 25.1375 37.5868 25.6437 37.5868H43.0604V6.42022H25.6437C25.1375 6.42022 24.7271 6.00978 24.7271 5.50352C24.7271 4.99727 25.1375 4.58691 25.6437 4.58691H43.977C44.4833 4.58691 44.8937 4.99735 44.8937 5.50361V38.5036C44.8937 39.0099 44.4834 39.4202 43.9771 39.4202Z" fill="#1565C0"/>
<path d="M16.477 30.2538C16.0686 30.2534 15.7098 29.9827 15.597 29.5901L12.8103 19.8404L10.0236 29.5901C9.82237 30.0766 9.26481 30.3078 8.77823 30.1066C8.54431 30.0098 8.35851 29.824 8.26175 29.5901L4.59514 16.7568C4.44165 16.2743 4.7084 15.7589 5.19086 15.6054C5.67331 15.4519 6.18876 15.7187 6.34225 16.2011C6.34766 16.2181 6.35256 16.2353 6.35703 16.2526L9.14364 26.0004L11.9303 16.2508C12.1316 15.7643 12.6892 15.533 13.1757 15.7343C13.4097 15.8311 13.5955 16.0169 13.6922 16.2508L16.477 26.0005L19.2637 16.2527C19.3956 15.7702 19.8937 15.486 20.3762 15.6179C20.3831 15.6198 20.3898 15.6218 20.3967 15.6238C20.8831 15.7632 21.1646 16.2703 21.0255 16.7568L17.3588 29.5901C17.2459 29.9833 16.8861 30.2541 16.477 30.2538Z" fill="#FAFAFA"/>
<path d="M40.3104 11.9204H25.6437C25.1375 11.9204 24.7271 11.51 24.7271 11.0037C24.7271 10.4975 25.1375 10.087 25.6437 10.087H40.3104C40.8167 10.087 41.2271 10.4975 41.2271 11.0037C41.2271 11.5101 40.8167 11.9204 40.3104 11.9204Z" fill="#1565C0"/>
<path d="M40.3104 17.4204H25.6437C25.1375 17.4204 24.7271 17.01 24.7271 16.5037C24.7271 15.9975 25.1375 15.587 25.6437 15.587H40.3104C40.8167 15.587 41.2271 15.9975 41.2271 16.5037C41.2271 17.01 40.8167 17.4204 40.3104 17.4204Z" fill="#1565C0"/>
<path d="M40.3104 22.9204H25.6437C25.1375 22.9204 24.7271 22.51 24.7271 22.0037C24.7271 21.4975 25.1375 21.087 25.6437 21.087H40.3104C40.8167 21.087 41.2271 21.4975 41.2271 22.0037C41.2271 22.5101 40.8167 22.9204 40.3104 22.9204Z" fill="#1565C0"/>
<path d="M40.3104 28.4204H25.6437C25.1375 28.4204 24.7271 28.01 24.7271 27.5037C24.7271 26.9975 25.1375 26.587 25.6437 26.587H40.3104C40.8167 26.587 41.2271 26.9975 41.2271 27.5037C41.2271 28.0101 40.8167 28.4204 40.3104 28.4204Z" fill="#1565C0"/>
<path d="M40.3104 33.9204H25.6437C25.1375 33.9204 24.7271 33.51 24.7271 33.0037C24.7271 32.4975 25.1375 32.087 25.6437 32.087H40.3104C40.8167 32.087 41.2271 32.4975 41.2271 33.0037C41.2271 33.5101 40.8167 33.9204 40.3104 33.9204Z" fill="#1565C0"/>
</g>
<defs>
<clipPath id="clip0">
<rect width="44" height="44" fill="white" transform="translate(0.893555)"/>
</clipPath>
</defs>
</svg>
